<?xml version="1.0" standalone="no"?>
<!DOCTYPE svg PUBLIC "-//W3C//DTD SVG 20010904//EN"
 "http://www.w3.org/TR/2001/REC-SVG-20010904/DTD/svg10.dtd">
<svg version="1.0" xmlns="http://www.w3.org/2000/svg"
 width="700.000000pt" height="700.000000pt" viewBox="0 0 700.000000 700.000000"
 preserveAspectRatio="xMidYMid meet">
<metadata>
Created by potrace 1.14, written by Peter Selinger 2001-2017
</metadata>
<g transform="translate(0.000000,700.000000) scale(0.100000,-0.100000)"
fill="#000000" stroke="none">
<path d="M3318 6992 c-44 -3 -48 -5 -48 -28 0 -22 3 -24 35 -21 40 5 42 1 45
-88 2 -57 6 -138 9 -178 1 -14 8 -18 29 -15 22 2 27 8 26 28 -1 14 -5 78 -8
143 l-7 117 34 0 c40 0 46 5 40 30 -5 20 -19 21 -155 12z"/>
<path d="M3520 6886 c-2 -164 -2 -200 -1 -212 1 -6 39 -11 96 -13 94 -2 95 -2
95 22 0 22 -4 24 -42 25 -104 1 -96 -4 -95 52 l2 50 53 0 c50 0 53 2 50 23 -3
19 -9 22 -51 22 -26 0 -47 2 -48 5 -6 26 -2 83 6 88 5 3 36 6 69 7 52 0 59 2
61 20 1 20 -4 21 -96 22 l-97 1 -2 -112z"/>
<path d="M3165 6956 c-3 -17 -23 -71 -44 -120 l-38 -89 -7 79 c-12 134 -15
144 -43 144 l-26 0 7 -82 c4 -46 9 -96 11 -113 2 -16 6 -54 9 -84 3 -30 7 -56
10 -58 7 -7 56 9 51 17 -2 4 16 56 40 116 28 68 45 100 46 84 0 -14 2 -34 4
-45 2 -11 6 -51 10 -88 7 -66 7 -68 33 -65 25 3 26 6 23 52 -1 27 -4 56 -6 65
-1 9 -6 50 -9 91 -4 41 -9 84 -11 95 -2 11 -4 22 -4 26 -1 3 -12 5 -25 5 -19
0 -26 -7 -31 -30z"/>
<path d="M3750 6966 c0 -23 4 -26 35 -26 19 0 35 -3 35 -7 -1 -5 -9 -69 -18
-145 l-18 -136 28 -4 c20 -3 28 0 29 11 0 9 2 25 4 36 2 11 7 45 10 76 4 31
10 79 13 105 7 49 8 49 44 48 28 -1 37 3 41 17 8 29 9 28 -140 45 l-63 6 0
-26z"/>
<path d="M4106 6933 c-6 -22 -34 -143 -41 -181 -3 -15 -11 -50 -19 -79 -13
-48 -13 -52 5 -56 25 -7 31 7 59 128 12 55 26 106 30 113 3 7 8 -33 9 -90 4
-170 4 -170 27 -178 18 -7 25 1 57 64 65 125 97 181 97 171 0 -5 -13 -65 -29
-133 l-28 -122 24 -6 c13 -4 25 -5 27 -3 4 5 69 289 70 308 1 7 -6 15 -15 16
-9 2 -26 6 -36 9 -18 6 -29 -9 -79 -98 -32 -58 -60 -104 -61 -102 -4 3 -11
121 -12 193 -1 43 0 42 -63 59 -10 3 -18 -2 -22 -13z"/>
<path d="M2783 6924 c-69 -34 -78 -170 -17 -273 31 -53 99 -70 156 -40 23 12
48 61 48 93 0 21 -4 25 -24 24 -19 -2 -26 -10 -31 -35 -5 -30 -29 -53 -53 -53
-35 0 -82 104 -82 180 0 35 27 70 54 70 24 0 56 -28 56 -48 0 -16 12 -15 34 1
15 11 16 17 6 38 -14 30 -59 59 -92 59 -12 0 -37 -7 -55 -16z"/>
<path d="M2502 6855 c-77 -24 -74 -16 -47 -97 13 -40 36 -112 50 -159 23 -77
28 -86 46 -82 29 8 32 22 14 72 -21 61 -20 66 23 79 21 7 46 20 56 31 35 39
24 115 -21 151 -29 23 -60 24 -121 5z m87 -48 c6 -8 14 -28 17 -45 5 -27 2
-32 -24 -46 -17 -9 -35 -16 -40 -16 -5 0 -16 23 -26 52 -13 41 -14 53 -4 60
20 12 64 9 77 -5z"/>
<path d="M4524 6830 c-70 -27 -131 -188 -102 -270 12 -34 49 -59 95 -66 32 -4
44 0 75 26 61 50 100 183 73 247 -22 52 -90 82 -141 63z m76 -60 c24 -24 25
-50 6 -114 -30 -99 -80 -140 -121 -99 -32 31 -3 165 45 213 25 25 45 25 70 0z"/>
<path d="M2280 6780 c-64 -24 -75 -31 -72 -50 1 -17 62 -192 97 -281 5 -15 16
-13 93 16 52 19 88 38 90 48 5 26 -13 27 -77 6 -34 -12 -63 -20 -65 -18 -1 2
-10 23 -19 47 l-16 43 32 13 c18 7 40 16 50 19 19 7 21 15 8 36 -8 12 -15 11
-50 -3 -23 -9 -45 -16 -50 -16 -13 0 -36 80 -25 89 5 4 27 13 49 19 54 16 67
26 59 45 -8 22 -15 21 -104 -13z"/>
<path d="M4725 6599 c-37 -83 -65 -152 -63 -153 1 -2 12 -8 24 -14 19 -10 23
-6 49 49 16 33 34 57 39 55 55 -24 87 -28 115 -17 50 21 79 112 48 152 -10 13
-127 79 -140 79 -3 0 -35 -68 -72 -151z m168 42 c6 -23 -11 -60 -35 -75 -12
-7 -25 -6 -47 4 l-30 15 25 53 24 52 29 -14 c16 -9 31 -24 34 -35z"/>
<path d="M1974 6647 l-62 -32 67 -137 c36 -75 71 -142 77 -148 8 -8 29 -2 75
22 75 39 104 81 88 128 -13 35 -40 61 -68 63 -17 1 -19 6 -14 27 3 14 7 27 9
29 7 8 -27 61 -45 71 -32 16 -62 11 -127 -23z m102 -34 c7 -10 14 -26 14 -35
0 -16 -44 -58 -61 -58 -9 0 -53 80 -47 86 7 6 53 23 67 23 8 1 20 -7 27 -16z
m82 -142 c12 -34 1 -56 -37 -76 -31 -16 -36 -13 -59 35 -20 44 -18 52 18 65
46 16 67 9 78 -24z"/>
<path d="M5012 6555 c-114 -118 -107 -266 14 -282 36 -5 46 -1 75 25 33 30 34
31 14 46 -18 13 -22 13 -41 -5 -44 -41 -100 -9 -89 52 7 38 37 91 73 132 49
53 112 24 98 -45 -5 -23 -2 -30 17 -37 16 -6 24 -4 29 8 20 49 -4 120 -49 140
-13 6 -41 11 -61 11 -31 0 -44 -8 -80 -45z"/>
<path d="M1792 6561 c-8 -4 -11 -18 -8 -32 3 -13 8 -69 11 -124 l5 -100 -55
85 c-30 47 -56 89 -58 94 -3 10 -47 -11 -47 -23 0 -4 29 -54 65 -110 36 -57
65 -105 65 -107 0 -3 10 -18 21 -34 19 -25 25 -27 45 -18 17 8 21 15 15 27 -4
9 -9 45 -10 81 -2 36 -5 85 -7 110 l-5 45 57 -90 c31 -50 58 -92 60 -94 2 -2
15 1 28 8 l23 13 -86 139 c-47 76 -90 139 -96 139 -5 0 -16 -4 -23 -9z"/>
<path d="M5217 6357 c-79 -129 -85 -143 -70 -154 25 -19 29 -17 59 31 25 39
58 66 83 66 4 0 4 -24 0 -52 -18 -120 -17 -124 3 -137 28 -17 35 -6 41 64 12
126 19 154 39 161 11 3 40 15 65 26 36 16 42 22 32 34 -17 21 -38 17 -115 -20
-38 -19 -71 -33 -73 -31 -2 2 13 30 33 61 36 59 37 67 8 83 -15 8 -31 -12
-105 -132z"/>
<path d="M1528 6396 c-10 -7 -18 -15 -18 -18 0 -2 18 -28 40 -58 l39 -53 -41
-30 c-23 -16 -44 -25 -45 -20 -2 6 -20 32 -40 57 -34 44 -36 45 -59 30 l-23
-16 101 -134 c88 -117 102 -132 119 -123 27 14 24 25 -20 84 l-40 53 22 19
c55 47 51 48 99 -16 43 -58 44 -59 66 -42 l23 17 -98 132 c-54 72 -100 131
-103 131 -3 0 -13 -6 -22 -13z"/>
<path d="M5504 6281 c-17 -10 -45 -36 -62 -57 -73 -88 -82 -156 -28 -210 52
-52 109 -46 176 18 51 48 81 101 85 153 3 41 0 49 -31 80 -41 41 -90 47 -140
16z m112 -56 c15 -23 15 -27 -5 -69 -26 -52 -102 -126 -130 -126 -11 0 -27 7
-36 17 -22 22 -14 62 25 118 58 85 115 108 146 60z"/>
<path d="M1329 6244 c-11 -14 -10 -26 10 -78 40 -106 40 -103 -10 -72 -81 50
-109 61 -126 50 -9 -5 -15 -14 -15 -19 0 -6 49 -37 109 -70 112 -63 125 -78
102 -122 -16 -30 2 -54 29 -37 41 26 38 55 -19 213 -29 83 -57 151 -60 151 -4
0 -13 -7 -20 -16z"/>
<path d="M5780 6144 c0 -5 -50 -61 -110 -124 l-109 -115 20 -20 20 -20 99 105
99 105 33 -30 c18 -17 35 -33 39 -38 3 -4 13 1 22 11 16 18 15 21 -30 63 -64
58 -83 73 -83 63z"/>
<path d="M945 6027 c-6 -7 -9 -19 -7 -28 4 -21 -24 -49 -48 -49 -19 0 -36 -17
-26 -27 3 -3 17 -5 32 -5 34 0 77 42 77 77 0 32 -14 48 -28 32z"/>
<path d="M3787 6000 c-2 -8 -10 -40 -17 -70 -18 -80 -57 -156 -99 -190 -41
-35 -56 -38 -41 -11 13 26 13 83 -1 118 l-12 28 -7 -25 c-19 -67 -84 -150
-117 -150 -6 0 -13 -3 -15 -7 -1 -5 -28 -20 -59 -35 -64 -32 -93 -59 -112
-108 -21 -53 -13 -97 32 -187 46 -92 47 -93 26 -93 -8 0 -15 -7 -15 -15 0 -8
6 -15 14 -15 9 0 15 -16 19 -47 3 -26 9 -49 15 -51 5 -1 7 -15 5 -30 -2 -17 0
-21 4 -12 9 18 28 23 54 15 15 -5 19 -16 19 -51 0 -33 -3 -43 -12 -38 -10 6
-10 4 0 -7 17 -19 15 -29 -8 -29 -14 0 -23 12 -34 48 -16 51 -22 37 -7 -16
l10 -32 -60 0 -59 0 -2 -32 c0 -18 -1 -52 -1 -75 -1 -41 -2 -43 -31 -44 -17
-1 -35 0 -41 1 -12 3 -33 3 -57 1 -19 -1 -27 -51 -8 -51 6 0 10 -7 10 -15 0
-9 20 -20 55 -30 l55 -16 -4 -116 c-3 -63 -6 -117 -8 -119 -2 -1 -15 3 -28 9
-17 9 -25 22 -27 42 0 17 -2 35 -2 42 -1 6 -10 9 -21 6 -17 -4 -20 -14 -20
-54 0 -27 -2 -49 -5 -49 -3 0 -19 10 -35 22 -30 21 -30 21 -45 2 -17 -22 -19
-44 -5 -44 6 0 10 5 10 11 0 14 18 2 30 -21 8 -16 7 -18 -9 -15 -11 2 -28 8
-39 14 -16 8 -21 6 -32 -14 -17 -32 -7 -52 25 -52 25 0 65 -28 65 -45 0 -22
55 -78 94 -96 l43 -21 -3 -58 c-1 -32 -5 -157 -8 -278 -4 -121 -9 -318 -12
-438 -7 -259 -9 -271 -50 -271 -19 0 -29 5 -29 15 0 9 -13 15 -41 17 -47 3
-85 35 -67 53 14 14 5 39 -13 39 -21 0 -33 -40 -23 -75 5 -16 9 -32 9 -35 0
-6 -23 -9 -67 -11 -25 -1 -20 -29 6 -30 12 0 12 -2 -4 -9 -17 -7 -16 -9 10 -9
17 -1 36 -5 44 -10 25 -16 -21 -32 -60 -21 -19 6 -34 10 -35 10 -1 0 -7 -13
-13 -28 -9 -22 -9 -34 2 -54 12 -23 15 -24 32 -12 10 8 34 14 52 14 33 0 40
-6 103 -81 36 -44 108 -78 122 -57 4 7 6 -65 3 -162 -5 -153 -8 -177 -25 -195
-11 -12 -20 -38 -22 -65 l-3 -45 -50 -1 c-73 -2 -74 -2 -68 -24 3 -11 0 -20
-6 -20 -6 0 -11 8 -11 19 0 27 -19 38 -62 38 -42 0 -43 -5 -24 -59 15 -42 6
-49 -28 -23 -24 18 -62 20 -72 3 -4 -6 1 -17 10 -24 11 -8 22 -39 30 -92 l13
-80 -36 -15 c-31 -14 -39 -25 -59 -84 -29 -85 -47 -113 -71 -113 -25 0 -34
-23 -35 -90 l-1 -55 -127 0 -128 0 -1 -25 c-3 -68 0 -152 6 -158 8 -8 2044
-10 2046 -2 3 15 5 166 2 176 -2 6 -41 10 -101 9 -53 -1 -103 0 -109 3 -8 3
-13 24 -13 58 0 50 -3 57 -35 85 -19 17 -35 38 -35 48 0 9 -10 32 -21 51 -19
30 -23 47 -28 102 -1 4 -26 14 -57 23 l-56 16 6 49 c6 42 4 52 -13 66 -15 13
-18 27 -15 56 2 21 7 44 11 51 10 16 10 78 0 84 -5 3 -11 -4 -14 -15 -3 -14
-12 -19 -32 -17 -15 1 -32 5 -38 8 -16 10 -23 -3 -23 -39 0 -18 -7 -40 -16
-48 -21 -21 -27 -20 -21 4 7 25 -15 36 -68 35 -53 -2 -64 8 -58 51 4 27 0 41
-16 58 -20 21 -22 38 -27 187 -5 159 -5 165 14 166 31 2 87 43 113 82 13 20
31 41 39 48 21 17 71 16 97 -2 19 -14 21 -13 27 10 4 14 10 25 15 25 5 0 3 14
-6 30 -11 23 -20 29 -33 25 -40 -13 -59 -13 -76 0 -17 12 -14 14 26 23 25 5
36 11 25 12 -19 1 -19 2 -2 9 37 14 17 30 -41 33 -20 0 -23 4 -18 27 3 14 8
36 11 47 6 26 -16 47 -39 38 -12 -5 -13 -10 -5 -26 16 -30 -14 -58 -61 -58
-30 0 -39 -4 -43 -21 -4 -16 -10 -19 -29 -14 -13 4 -24 8 -25 9 -1 1 -4 107
-7 236 -4 129 -9 325 -12 435 -3 110 -7 238 -7 285 l-2 85 36 17 c38 18 72 54
101 107 16 29 29 34 76 30 15 -1 17 46 2 62 -13 13 -19 14 -41 3 -31 -16 -42
-9 -28 18 8 15 14 17 24 8 22 -18 25 3 4 28 l-19 24 -26 -21 c-39 -30 -46 -26
-41 24 4 47 -6 67 -29 58 -9 -3 -14 -20 -14 -42 0 -31 -5 -40 -25 -49 -21 -10
-25 -9 -26 6 0 9 -2 63 -5 120 -2 62 0 102 6 103 6 1 15 3 20 4 6 1 19 3 29 4
28 2 69 42 73 70 2 19 -3 26 -24 32 -17 4 -28 3 -28 -2 0 -6 -5 -7 -12 -3 -7
4 -29 7 -49 5 l-37 -2 0 43 c1 97 -1 109 -19 107 -10 -1 -37 -1 -60 0 -37 1
-41 3 -37 24 2 12 2 16 -2 9 -3 -6 -10 -10 -15 -7 -5 4 -6 -1 -3 -9 4 -11 0
-16 -13 -16 -17 0 -20 8 -22 59 -2 57 -1 59 29 69 17 6 28 8 26 3 -3 -4 1 -8
9 -8 8 0 13 2 10 5 -2 2 2 17 10 33 8 15 15 42 15 59 0 20 5 30 15 30 8 0 15
7 15 15 0 8 -7 15 -15 15 -19 0 -19 8 4 56 10 21 27 77 37 124 17 83 19 86 81
145 95 92 121 170 100 309 -10 61 -33 117 -40 96z m-295 -482 c-23 -45 -27
-64 -27 -140 0 -48 -3 -88 -6 -88 -13 0 -27 75 -25 130 2 51 7 64 40 104 20
25 39 46 41 46 2 0 -8 -23 -23 -52z m-522 -3258 c0 -43 -10 -80 -20 -80 -5 0
-14 26 -20 58 -6 31 -14 65 -16 74 -5 17 -4 17 25 0 25 -14 31 -23 31 -52z
m-74 -295 c-6 -22 -26 -26 -79 -16 -8 1 15 43 42 74 14 17 16 17 29 -9 7 -14
11 -36 8 -49z"/>
<path d="M1025 5980 c-15 -17 -16 -21 -2 -34 8 -8 27 -52 42 -98 15 -46 32
-92 37 -103 8 -15 1 -12 -23 10 -19 17 -36 33 -39 36 -3 3 -27 25 -54 49 l-50
42 -17 -21 c-18 -21 -17 -23 24 -59 23 -20 62 -56 87 -78 115 -105 120 -108
137 -91 14 14 14 19 0 49 -8 18 -24 61 -35 95 -11 33 -26 71 -32 83 -11 20
-10 21 9 11 11 -6 24 -17 28 -24 4 -7 34 -35 67 -62 55 -47 59 -48 72 -30 18
25 18 31 -5 47 -10 7 -60 51 -111 98 -113 104 -113 104 -135 80z"/>
<path d="M5906 5955 c-79 -27 -164 -130 -166 -197 0 -38 53 -96 94 -104 82
-15 230 123 221 206 -2 14 -4 28 -4 32 -1 4 -12 19 -25 33 -33 36 -74 46 -120
30z m88 -66 c18 -26 8 -56 -31 -103 -33 -40 -101 -85 -122 -81 -9 2 -19 4 -23
4 -14 2 -29 42 -23 62 9 28 73 98 110 121 40 24 70 23 89 -3z"/>
<path d="M810 5750 c-7 -12 -8 -26 -3 -30 4 -4 64 -49 132 -99 114 -85 124
-91 137 -74 7 10 14 21 14 25 0 7 -242 190 -260 196 -5 2 -14 -7 -20 -18z"/>
<path d="M6096 5588 l-138 -100 20 -20 c13 -13 25 -17 33 -12 8 4 26 9 41 10
15 1 60 7 99 14 40 6 73 9 75 7 2 -2 -34 -30 -81 -63 -46 -32 -84 -61 -84 -64
0 -3 6 -14 14 -24 17 -22 8 -27 197 112 78 57 86 66 77 84 -8 14 -17 18 -32
13 -23 -6 -220 -34 -224 -31 -2 1 35 29 82 62 46 32 84 64 85 70 0 5 -6 18
-12 27 -12 14 -28 5 -152 -85z"/>
<path d="M871 5592 c-7 -2 -29 -22 -48 -43 l-35 -38 -46 35 c-25 19 -50 33
-56 31 -12 -4 -32 -35 -26 -40 3 -2 63 -47 134 -100 l129 -97 43 62 c59 83 57
123 -4 167 -31 21 -68 31 -91 23z m69 -77 c24 -26 24 -26 6 -60 -11 -19 -23
-35 -27 -35 -11 0 -88 53 -89 61 0 4 9 18 21 33 26 33 59 33 89 1z"/>
<path d="M578 5434 c-8 -17 -9 -29 -3 -31 6 -2 31 -17 58 -33 47 -30 47 -31
33 -58 -32 -58 -29 -57 -90 -22 -46 26 -60 30 -71 20 -8 -7 -15 -18 -15 -24 0
-6 63 -49 141 -95 133 -79 141 -83 154 -65 8 11 15 21 15 25 0 3 -27 21 -60
40 -33 18 -60 38 -60 43 0 13 40 76 49 76 4 0 31 -16 61 -35 30 -19 58 -35 61
-35 3 0 11 11 17 24 10 23 6 27 -111 97 -67 40 -132 79 -144 87 -21 13 -23 12
-35 -14z"/>
<path d="M6383 5306 c-39 -24 -75 -45 -80 -47 -23 -10 -123 -74 -123 -79 0 -4
6 -14 14 -25 12 -17 15 -17 69 14 l56 32 18 -28 c39 -61 77 -76 137 -53 34 13
66 65 59 99 -5 29 -61 131 -72 131 -4 0 -39 -20 -78 -44z m92 -55 c18 -36 11
-57 -24 -75 -34 -16 -56 -11 -76 20 -19 29 -19 29 32 60 48 30 50 30 68 -5z"/>
<path d="M2380 5184 c-89 -23 -152 -52 -334 -151 -94 -51 -207 -105 -251 -119
-162 -51 -289 -30 -442 74 -58 40 -203 178 -203 194 0 4 -4 8 -10 8 -7 0 -10
-397 -10 -1170 l0 -1170 88 -89 c149 -151 266 -212 407 -214 138 -3 183 13
440 151 195 105 246 126 345 146 177 35 359 -35 533 -202 l47 -46 0 145 0 145
-52 50 c-182 175 -373 240 -563 193 -49 -12 -139 -47 -180 -69 -372 -203 -423
-224 -555 -223 -90 0 -153 16 -226 58 l-41 24 0 881 c0 484 3 879 6 877 40
-22 145 -67 167 -72 40 -8 131 -7 179 0 69 12 164 53 325 140 183 99 230 121
317 145 91 25 218 21 298 -10 71 -27 199 -110 270 -173 l50 -46 3 142 3 142
-48 44 c-104 95 -213 164 -303 191 -64 19 -195 21 -260 4z"/>
<path d="M4355 5186 c-103 -26 -219 -94 -320 -188 l-59 -55 -1 -142 c0 -77 2
-141 4 -141 2 0 23 17 45 38 175 157 301 214 456 207 91 -4 112 -9 195 -40 59
-22 205 -95 230 -115 33 -27 241 -120 300 -135 193 -49 350 9 535 194 l96 96
0 143 c0 78 -1 142 -2 142 -1 0 -41 -40 -90 -89 -148 -148 -273 -212 -414
-212 -120 -1 -185 23 -435 159 -206 111 -293 143 -405 147 -47 2 -107 -3 -135
-9z"/>
<path d="M420 5181 c0 -5 -3 -17 -6 -25 -5 -13 8 -23 54 -43 l61 -26 -15 -36
c-8 -20 -19 -39 -23 -44 -4 -4 -34 4 -66 19 -56 24 -60 25 -72 8 -7 -10 -12
-22 -11 -26 3 -8 299 -150 304 -145 1 1 5 14 9 28 6 24 2 28 -47 49 -78 33
-79 34 -56 81 21 45 26 45 110 3 46 -23 48 -24 58 -5 5 11 10 22 10 26 0 6
-249 127 -287 139 -13 4 -23 3 -23 -3z"/>
<path d="M3450 5093 c0 -16 -2 -16 -11 -3 -9 12 -9 11 -4 -5 4 -11 7 -31 6
-44 0 -14 2 -21 5 -18 9 8 17 87 10 87 -4 0 -6 -8 -6 -17z"/>
<path d="M3511 5092 c-1 -25 20 -26 27 -1 3 12 2 12 -6 0 -8 -11 -11 -10 -15
5 -4 16 -5 15 -6 -4z"/>
<path d="M6565 5085 c-23 -11 -89 -42 -148 -69 -59 -27 -107 -53 -107 -56 0
-8 69 -162 75 -168 2 -2 12 1 23 7 20 11 20 11 -2 58 -36 76 -36 76 7 95 21
10 42 18 46 18 4 0 17 -20 29 -45 20 -41 24 -44 42 -35 18 10 19 13 6 38 -31
61 -30 70 10 87 20 8 40 15 44 15 4 0 19 -27 33 -60 24 -55 28 -59 46 -48 22
14 19 26 -35 128 l-29 55 -40 -20z"/>
<path d="M3554 5085 c-3 -8 -4 -20 -2 -27 3 -7 7 -1 10 15 6 29 1 36 -8 12z"/>
<path d="M3506 5044 c-4 -9 -4 -19 -1 -22 3 -3 5 0 5 7 0 7 5 9 10 6 6 -3 10
1 10 9 0 21 -16 20 -24 0z"/>
<path d="M300 4924 c-6 -14 -19 -46 -30 -72 -10 -26 -21 -53 -22 -60 -3 -14
293 -145 303 -134 3 4 21 43 39 86 31 77 31 80 14 93 -17 13 -21 11 -36 -24
-10 -21 -18 -42 -18 -48 0 -5 -7 -18 -14 -28 -13 -16 -16 -16 -59 3 l-46 20
21 47 c20 45 20 47 2 60 -17 12 -21 9 -42 -37 -12 -27 -24 -50 -26 -50 -2 0
-22 8 -44 18 l-40 18 24 54 c29 68 29 80 4 80 -13 0 -24 -10 -30 -26z"/>
<path d="M3172 4910 c0 -14 2 -19 5 -12 2 6 2 18 0 25 -3 6 -5 1 -5 -13z"/>
<path d="M3735 4920 c3 -5 8 -10 11 -10 2 0 4 5 4 10 0 6 -5 10 -11 10 -5 0
-7 -4 -4 -10z"/>
<path d="M6640 4854 c-110 -42 -137 -90 -85 -152 l24 -29 -59 -25 c-50 -22
-58 -29 -53 -47 7 -28 28 -27 114 10 41 16 83 34 94 38 11 5 40 17 65 27 25
10 46 19 48 20 1 1 -2 13 -9 27 l-11 25 -70 -29 c-75 -31 -101 -28 -113 12
-10 29 14 51 80 74 63 21 69 27 60 55 -8 24 -5 25 -85 -6z"/>
<path d="M201 4641 c-16 -16 -65 -150 -58 -157 9 -9 302 -94 312 -91 18 7 48
131 40 166 -11 51 -77 80 -127 55 -34 -17 -38 -17 -38 0 0 20 -45 46 -80 46
-16 0 -39 -9 -49 -19z m93 -62 c11 -16 12 -28 4 -50 -11 -32 -20 -34 -67 -18
-29 10 -32 15 -26 38 4 14 11 32 17 38 16 20 55 15 72 -8z m141 -29 c13 -14
16 -28 11 -54 -4 -20 -11 -38 -15 -40 -5 -3 -29 2 -55 10 -40 14 -46 19 -40
38 19 64 63 85 99 46z"/>
<path d="M6795 4593 c-39 -10 -288 -83 -291 -86 -7 -7 10 -47 20 -47 6 0 39 9
72 19 l62 18 11 -37 c6 -20 11 -42 11 -47 0 -6 -31 -20 -69 -32 -59 -19 -68
-25 -64 -42 3 -10 9 -22 13 -24 5 -3 77 15 162 39 145 42 153 45 150 67 -2 13
-5 25 -7 27 -2 2 -31 -4 -64 -14 -34 -9 -65 -14 -69 -10 -3 4 -12 25 -18 47
l-12 39 42 10 c68 18 86 25 86 33 0 4 0 16 0 27 0 21 -1 21 -35 13z"/>
<path d="M4391 4508 c-112 -17 -255 -96 -361 -200 l-54 -54 -1 -137 c0 -139 5
-155 36 -119 135 151 364 249 517 220 26 -4 60 -11 76 -14 45 -8 142 -51 266
-119 263 -143 334 -170 455 -170 165 0 293 73 475 268 l35 38 0 144 1 144 -84
-84 c-145 -146 -270 -214 -404 -220 -124 -6 -202 21 -462 162 -234 128 -355
162 -495 141z"/>
<path d="M125 4428 c-2 -7 -14 -51 -25 -97 -17 -68 -19 -86 -8 -92 20 -13 32
-5 42 29 5 18 12 32 15 32 3 -1 64 -16 136 -34 131 -33 144 -33 145 5 0 16
-62 36 -218 71 l-54 12 6 37 c5 28 2 38 -10 43 -22 8 -24 8 -29 -6z"/>
<path d="M6700 4274 c-100 -32 -136 -105 -90 -181 30 -49 100 -62 205 -38 107
26 151 111 98 192 -28 43 -125 55 -213 27z m185 -75 c17 -51 -40 -87 -151 -96
-69 -6 -97 11 -92 55 4 34 50 60 124 70 68 9 111 -1 119 -29z"/>
<path d="M105 4171 c-53 -22 -76 -90 -49 -148 21 -42 86 -74 167 -80 84 -7
132 13 153 63 26 63 8 111 -54 144 -27 13 -27 13 -36 -15 -4 -15 2 -24 24 -37
48 -27 33 -96 -21 -99 -10 -1 -25 -2 -31 -3 -25 -4 -118 21 -143 38 -48 31
-25 79 47 100 11 3 15 12 11 25 -6 22 -32 26 -68 12z"/>
<path d="M6870 3994 c-47 -7 -109 -16 -139 -20 -30 -3 -62 -8 -70 -9 -9 -2
-19 -4 -23 -4 -5 -1 -6 -11 -4 -23 3 -13 5 -26 5 -29 1 -5 218 24 263 35 18 4
22 -4 33 -66 3 -21 10 -38 15 -38 17 0 40 12 36 19 -3 4 -7 29 -11 56 -8 70
-10 84 -16 88 -2 2 -42 -2 -89 -9z"/>
<path d="M59 3875 c-31 -17 -44 -50 -48 -120 -2 -27 -5 -53 -7 -57 -3 -5 1 -8
8 -9 7 0 42 -2 78 -4 36 -2 105 -6 155 -9 93 -5 107 0 98 35 -5 16 -15 19 -64
19 -49 0 -59 3 -60 18 -6 84 -16 110 -49 127 -36 19 -77 19 -111 0z m92 -55
c14 -8 19 -21 19 -49 l0 -39 -47 5 c-69 7 -74 9 -69 39 10 51 49 69 97 44z"/>
<path d="M4355 3817 c-107 -28 -217 -93 -322 -191 l-57 -53 -1 -129 c0 -71 1
-134 3 -141 2 -7 35 15 76 51 220 192 415 229 659 125 40 -16 115 -54 167 -83
242 -137 327 -168 452 -168 135 0 264 67 409 211 l96 96 -1 143 c-1 78 -2 142
-3 142 -1 0 -37 -35 -80 -78 -96 -96 -143 -133 -221 -172 -108 -54 -212 -65
-328 -34 -78 20 -122 40 -309 142 -201 109 -292 142 -405 148 -51 2 -105 -2
-135 -9z"/>
<path d="M6735 3775 c-87 -31 -113 -128 -51 -190 57 -57 250 -40 296 25 26 37
21 102 -11 136 -41 44 -153 58 -234 29z m193 -61 c22 -15 29 -48 14 -72 -19
-29 -151 -43 -207 -22 -51 19 -46 83 8 99 54 15 160 13 185 -5z"/>
<path d="M280 3621 c-8 -4 -75 -23 -147 -41 l-133 -33 0 -32 c0 -35 -15 -29
219 -96 72 -21 108 -35 95 -39 -10 -3 -30 -12 -44 -21 -14 -9 -78 -34 -143
-55 l-118 -39 3 -38 c2 -45 4 -46 60 -53 24 -2 53 -7 65 -9 12 -3 46 -8 75
-11 29 -3 69 -11 88 -18 19 -6 56 -10 83 -8 38 3 47 8 47 23 0 15 -7 19 -38
19 -24 0 -39 5 -39 13 0 6 -3 44 -7 84 l-8 72 37 7 c44 8 46 39 3 39 -31 1
-43 10 -43 33 0 11 -15 22 -42 30 -43 14 -43 14 -43 62 l0 48 43 10 c35 9 42
15 43 37 2 19 -3 25 -20 25 -11 0 -28 -4 -36 -9z m-72 -116 c-1 -20 -7 -34
-13 -31 -6 2 -37 9 -69 16 -65 13 -65 20 2 36 79 19 83 19 80 -21z m88 -231
c1 -10 3 -32 5 -49 5 -34 6 -34 -126 -21 -79 8 -109 15 -101 23 9 10 200 71
211 69 6 -2 11 -11 11 -22z"/>
<path d="M6750 3372 c-20 -9 -42 -31 -50 -49 -8 -18 -24 -33 -34 -35 -26 -4
-33 -48 -7 -48 12 0 23 -14 35 -43 19 -50 56 -76 118 -81 66 -5 137 40 138 87
0 11 8 17 25 17 20 0 25 5 25 24 0 19 -4 24 -20 21 -11 -2 -20 -1 -21 3 -11
100 -114 152 -209 104z m131 -52 c10 -6 24 -20 30 -31 11 -21 10 -21 -83 -14
-51 4 -95 9 -98 12 -3 3 7 15 22 28 21 18 36 22 68 19 23 -2 50 -9 61 -14z
m-52 -91 c40 -2 75 -8 78 -13 11 -17 -38 -46 -79 -46 -42 0 -76 14 -95 39 -8
12 -8 18 0 23 6 4 14 5 17 3 3 -2 38 -5 79 -6z"/>
<path d="M4428 3145 c-2 -1 -22 -5 -46 -9 -101 -13 -249 -97 -357 -202 l-50
-49 1 -125 c1 -69 2 -133 3 -142 1 -13 14 -5 52 30 224 206 423 254 660 157
34 -13 125 -60 203 -102 166 -92 250 -129 329 -148 119 -28 250 -3 360 67 66
42 95 67 181 156 l71 73 1 144 1 145 -86 -86 c-154 -154 -273 -216 -421 -217
-109 -2 -186 22 -345 109 -192 104 -316 162 -380 178 -56 14 -169 28 -177 21z"/>
<path d="M6640 3085 c0 -18 7 -28 25 -35 14 -5 44 -18 68 -29 23 -10 68 -31
100 -45 31 -13 57 -26 57 -28 0 -2 -10 -4 -22 -4 -49 -1 -252 -14 -253 -17 -1
-1 -5 -14 -9 -29 -6 -27 -6 -27 41 -23 27 2 86 6 133 10 93 7 163 15 168 20 2
2 6 16 8 32 4 28 1 31 -78 68 -46 21 -114 53 -152 72 -38 18 -73 33 -78 33 -4
0 -8 -11 -8 -25z"/>
<path d="M24 3073 c3 -8 6 -20 6 -27 0 -7 6 -13 13 -14 41 -2 123 -15 139 -21
15 -5 3 -15 -57 -50 -61 -34 -75 -47 -75 -67 0 -13 5 -24 12 -24 6 0 56 27
110 61 106 65 150 74 156 33 2 -16 10 -21 28 -20 35 2 31 56 -7 76 -20 11
-132 36 -205 45 -27 4 -66 10 -87 15 -32 7 -37 6 -33 -7z"/>
<path d="M288 2874 c-14 -13 6 -44 28 -44 24 0 64 -31 64 -49 0 -47 -68 -83
-182 -95 -35 -4 -68 19 -68 47 0 28 9 41 37 56 20 10 21 15 11 36 -11 24 -12
25 -37 9 -63 -40 -77 -93 -41 -152 26 -42 61 -55 133 -49 152 13 233 110 171
205 -21 33 -97 56 -116 36z"/>
<path d="M6624 2813 c-78 -38 -81 -151 -3 -197 69 -41 168 -55 222 -32 70 29
86 125 29 178 -57 53 -188 80 -248 51z m137 -58 c91 -31 114 -58 89 -104 -30
-57 -240 3 -240 69 0 48 67 64 151 35z"/>
<path d="M309 2590 c-134 -42 -176 -96 -142 -181 23 -58 73 -76 163 -58 121
24 184 91 161 169 -22 74 -89 99 -182 70z m126 -60 c23 -19 18 -56 -11 -79
-31 -25 -114 -51 -159 -51 -44 0 -72 31 -57 65 15 32 46 51 112 68 62 16 93
15 115 -3z"/>
<path d="M6509 2515 c-1 -8 -2 -20 -3 -26 -1 -6 55 -28 124 -51 69 -22 129
-43 133 -47 4 -4 3 -20 -3 -36 -8 -22 -8 -30 2 -37 27 -17 36 -6 62 80 31 103
32 108 8 114 -14 4 -22 -3 -31 -28 -7 -19 -15 -34 -19 -34 -4 0 -63 18 -132
40 -141 45 -139 45 -141 25z"/>
<path d="M6472 2405 c-10 -21 -7 -27 24 -52 l35 -28 -18 -43 -18 -43 -46 6
c-41 6 -46 4 -57 -19 -11 -24 -9 -26 21 -30 18 -3 61 -11 97 -17 77 -13 88
-15 160 -24 54 -7 56 -6 68 20 7 16 9 31 5 35 -4 3 -39 33 -78 66 -38 33 -95
81 -126 107 l-56 47 -11 -25z m162 -160 c57 -44 57 -45 25 -39 -19 3 -49 10
-68 15 -19 4 -38 6 -43 3 -4 -3 -8 -1 -8 5 0 15 22 61 30 61 4 0 33 -20 64
-45z"/>
<path d="M465 2244 c-55 -23 -107 -45 -115 -48 -8 -3 -21 -9 -28 -12 -8 -4
-21 13 -36 45 -21 46 -25 49 -41 37 -18 -13 -18 -16 10 -82 15 -38 30 -71 31
-72 1 -2 70 25 153 60 106 44 151 68 151 79 0 38 -24 37 -125 -7z"/>
<path d="M6440 2080 c-13 -27 -26 -48 -29 -48 -3 1 -28 -2 -55 -6 l-48 -8 37
-38 c37 -38 38 -40 32 -94 -3 -31 -3 -56 1 -56 4 1 27 11 51 24 l44 23 44 -25
c24 -13 46 -22 49 -19 3 3 1 27 -4 53 -10 46 -10 47 30 90 22 24 39 44 37 45
-2 0 -24 3 -49 6 -55 6 -62 12 -85 63 -10 22 -21 40 -25 40 -4 0 -17 -22 -30
-50z"/>
<path d="M521 2093 c-23 -55 -46 -75 -92 -80 -24 -3 -46 -7 -48 -9 -3 -3 12
-22 33 -43 35 -36 38 -42 32 -81 -3 -23 -8 -45 -11 -51 -9 -14 8 -11 58 11
l46 21 51 -26 51 -26 -5 23 c-19 83 -17 91 27 136 23 24 38 42 32 41 -5 -2
-31 0 -58 5 -44 7 -49 11 -72 57 -14 27 -27 49 -29 49 -2 0 -9 -12 -15 -27z"/>
<path d="M743 1831 c-24 -16 -85 -56 -137 -90 -91 -59 -95 -63 -84 -86 8 -18
15 -22 27 -16 9 5 59 12 111 15 52 4 104 9 115 13 11 3 -23 -23 -75 -57 -52
-34 -96 -64 -98 -65 -8 -7 24 -45 34 -41 5 2 70 43 142 90 123 80 132 88 122
107 -8 15 -18 19 -33 15 -12 -3 -58 -8 -102 -11 -44 -4 -90 -8 -102 -10 -13
-2 -23 -2 -23 -1 0 2 37 28 82 57 46 30 87 57 91 60 9 6 -13 50 -23 48 -3 0
-24 -13 -47 -28z"/>
<path d="M6184 1815 c-16 -25 -16 -27 3 -48 24 -26 78 -87 154 -172 29 -33 55
-61 58 -63 4 -1 12 7 19 18 10 17 8 24 -18 53 l-29 33 27 41 27 40 40 -14 c36
-12 41 -12 52 4 7 9 13 20 13 25 0 6 -200 73 -312 104 -11 3 -23 -5 -34 -21z
m186 -91 c0 -6 -8 -22 -18 -34 l-17 -21 -41 43 c-61 65 -60 68 11 45 36 -12
65 -26 65 -33z"/>
<path d="M6112 1662 c-20 -3 -123 -113 -122 -130 1 -7 243 -195 259 -200 16
-5 101 118 101 147 0 52 -64 107 -105 90 -31 -12 -34 -11 -30 11 4 23 -36 76
-62 82 -10 2 -28 2 -41 0z m36 -68 c28 -19 28 -51 1 -80 l-22 -23 -33 26 c-19
14 -34 30 -34 35 0 10 49 58 59 58 4 0 17 -7 29 -16z m139 -104 c10 -21 9 -29
-7 -55 -23 -36 -32 -37 -76 -5 -40 30 -41 36 -12 67 30 32 78 28 95 -7z"/>
<path d="M804 1540 c-71 -56 -130 -105 -132 -109 -1 -4 4 -14 12 -20 13 -11
31 -1 108 60 125 97 126 97 112 79 -6 -8 -43 -58 -82 -111 -40 -53 -72 -101
-72 -106 0 -32 26 -29 128 14 134 56 152 63 152 59 0 -2 -48 -40 -106 -86
-101 -79 -105 -83 -88 -101 10 -11 21 -16 28 -11 133 102 246 196 246 205 -1
7 -9 22 -20 35 l-18 22 -111 -45 c-60 -25 -112 -45 -115 -45 -3 0 26 42 64 94
39 52 70 98 70 103 -1 4 -11 20 -23 36 l-23 27 -130 -100z"/>
<path d="M2336 1501 c-2 -3 -4 -72 -5 -153 -1 -112 2 -148 12 -149 17 -1 2258
-1 2280 0 16 1 17 13 15 154 l-3 152 -1148 1 c-631 1 -1149 -1 -1151 -5z"/>
<path d="M5921 1437 c-40 -14 -72 -53 -77 -93 -8 -78 122 -204 211 -204 49 0
91 35 107 89 19 66 -85 185 -187 214 -11 3 -35 0 -54 -6z m90 -73 c76 -47 120
-129 87 -162 -19 -19 -51 -14 -101 18 -42 27 -107 100 -107 122 0 5 11 20 24
33 27 27 38 26 97 -11z"/>
<path d="M1020 1254 l-114 -116 67 -64 c70 -68 78 -72 95 -51 9 10 0 25 -38
62 l-50 49 33 33 c17 18 37 33 43 33 5 0 25 -15 43 -34 30 -31 35 -33 49 -20
13 14 11 19 -22 53 l-37 38 28 31 c15 18 32 32 37 32 6 0 31 -20 57 -46 41
-40 47 -43 59 -29 12 14 5 25 -51 81 -35 35 -68 64 -74 64 -6 0 -62 -52 -125
-116z"/>
<path d="M5725 1237 c-17 -12 -44 -35 -62 -52 l-32 -30 115 -117 c63 -65 117
-118 121 -118 3 0 14 7 24 16 17 15 16 19 -27 60 l-45 44 30 38 c38 49 45 75
28 109 -35 67 -99 88 -152 50z m90 -60 c21 -30 19 -50 -8 -75 l-23 -22 -40 41
-39 40 27 24 c31 27 61 24 83 -8z"/>
<path d="M1251 1148 c-32 -35 -84 -90 -115 -123 l-55 -60 22 -18 c22 -17 23
-16 68 33 25 27 50 50 54 50 4 0 22 -13 41 -29 l33 -29 -48 -53 c-49 -54 -54
-72 -23 -84 12 -4 28 6 51 32 19 21 67 73 108 115 40 42 73 82 73 89 0 6 -8
17 -17 24 -15 11 -24 7 -64 -38 l-46 -50 -36 34 -37 34 45 49 c38 41 42 51 32
67 -7 11 -15 19 -19 19 -4 0 -34 -28 -67 -62z"/>
<path d="M2185 1086 c-2 -6 -3 -76 -2 -156 l2 -145 1290 0 c710 -1 1296 1
1303 3 9 3 12 43 12 156 l0 153 -1301 0 c-919 0 -1302 -4 -1304 -11z"/>
<path d="M5532 1062 l-22 -17 62 -158 c34 -86 66 -157 73 -157 27 0 34 22 20
58 -20 46 -20 45 22 75 l37 26 33 -25 c27 -20 37 -23 53 -14 11 6 20 14 20 19
0 11 -259 212 -271 211 -2 0 -14 -8 -27 -18z m123 -116 l30 -26 -24 -20 c-13
-11 -26 -20 -30 -20 -6 0 -26 42 -60 124 -4 10 36 -18 84 -58z"/>
<path d="M1400 909 c-99 -126 -102 -131 -84 -150 15 -16 20 -17 33 -6 9 8 52
29 96 47 44 17 84 36 90 41 5 5 13 9 18 9 5 0 -21 -38 -58 -85 -55 -70 -65
-88 -55 -100 7 -8 18 -15 24 -15 7 0 58 58 114 130 100 128 101 129 80 144
-18 13 -24 13 -37 2 -9 -7 -23 -15 -31 -18 -8 -4 -52 -22 -97 -42 l-83 -35 65
82 c36 45 65 87 65 94 0 7 -8 17 -19 22 -16 9 -32 -6 -121 -120z"/>
<path d="M5401 959 c-22 -18 -23 -23 -17 -104 3 -47 2 -85 -2 -85 -4 0 -25 27
-46 59 -38 57 -40 59 -63 44 -13 -9 -20 -20 -16 -27 5 -8 173 -243 188 -264 1
-1 12 5 24 15 l22 18 -30 40 c-22 28 -31 51 -31 79 0 37 1 38 23 24 12 -8 47
-29 78 -47 55 -31 57 -31 79 -13 l23 18 -101 58 -101 57 -3 73 -3 74 -24 -19z"/>
<path d="M5131 781 l-23 -18 21 -89 c12 -49 31 -124 42 -166 20 -75 21 -76 45
-66 27 13 27 11 10 58 -13 34 -12 35 28 61 l41 26 32 -30 c30 -29 34 -30 59
-17 l26 14 -114 111 c-149 145 -139 137 -167 116z m129 -161 c0 -3 -13 -13
-30 -22 l-29 -17 -16 54 c-8 30 -18 62 -22 72 -3 10 17 -4 46 -32 28 -27 51
-52 51 -55z"/>
<path d="M1815 762 c-17 -15 -59 -52 -94 -82 -35 -30 -80 -69 -99 -86 l-36
-31 23 -13 c20 -10 26 -9 50 14 33 32 44 32 84 4 18 -12 33 -22 35 -23 1 -1
-4 -19 -12 -41 -13 -37 -12 -40 10 -57 19 -14 25 -15 28 -5 3 7 16 51 31 98
14 47 30 92 34 100 4 8 14 39 21 69 12 50 11 55 -6 68 -25 18 -35 16 -69 -15z
m4 -103 c-12 -35 -22 -65 -24 -67 -1 -1 -16 5 -34 15 l-31 18 53 52 c28 28 53
50 55 49 1 -2 -7 -32 -19 -67z"/>
<path d="M4967 688 c-26 -9 -27 -12 -21 -56 3 -26 8 -56 10 -67 2 -10 6 -37 9
-60 3 -22 9 -49 12 -60 7 -25 1 -20 -87 85 -35 41 -68 78 -74 82 -7 5 -57 -13
-74 -27 -3 -3 127 -288 137 -298 4 -4 15 -1 25 6 16 12 13 21 -39 131 -30 64
-55 120 -55 122 0 3 41 -44 91 -105 79 -96 94 -109 110 -100 10 5 19 13 19 17
0 8 -17 114 -24 147 -8 42 -17 119 -13 115 2 -3 25 -52 52 -110 56 -125 64
-135 88 -117 17 12 14 22 -41 142 -32 72 -62 138 -65 148 -7 19 -19 20 -60 5z"/>
<path d="M1950 571 c-51 -61 -98 -111 -104 -111 -7 0 -22 -21 -35 -47 -20 -41
-21 -48 -7 -61 13 -14 17 -12 33 16 10 18 23 32 28 31 6 0 39 -15 75 -33 51
-25 64 -36 62 -52 -8 -46 -6 -59 8 -61 17 -4 62 89 54 111 -3 7 9 73 27 146
34 144 33 152 -22 165 -23 6 -35 -4 -119 -104z m110 44 c0 -8 -53 -219 -55
-223 -2 -2 -26 8 -54 21 l-51 23 72 92 c65 81 88 104 88 87z"/>
<path d="M2163 448 c-61 -150 -64 -167 -27 -168 6 0 23 33 39 73 15 39 32 76
36 81 5 6 9 17 9 26 0 9 6 25 14 36 14 18 15 17 11 -11 -28 -220 -29 -241 -9
-249 12 -5 23 0 34 13 8 11 42 55 75 98 62 80 85 108 85 100 0 -4 -39 -97 -60
-142 -24 -53 -39 -98 -35 -105 4 -6 45 -21 45 -16 0 1 27 68 60 150 33 82 60
152 60 157 0 12 -72 33 -79 22 -21 -32 -134 -173 -138 -173 -3 0 -3 24 0 53
22 196 22 184 -6 191 -14 3 -31 8 -39 11 -10 4 -31 -37 -75 -147z"/>
<path d="M2535 466 c-2 -6 -20 -74 -41 -151 -20 -77 -39 -145 -41 -151 -2 -7
9 -14 26 -16 18 -3 31 0 31 6 0 6 37 49 82 96 45 46 78 75 74 65 -12 -32 -56
-198 -53 -202 2 -1 14 -4 27 -5 23 -3 26 4 57 117 18 66 35 130 37 143 3 12 7
31 11 41 4 14 0 20 -19 23 -19 4 -30 -1 -42 -21 -10 -14 -48 -57 -85 -96 l-68
-70 15 50 c16 50 43 154 44 166 0 12 -52 17 -55 5z"/>
<path d="M4370 457 c-39 -19 -62 -73 -55 -127 11 -81 35 -138 72 -171 31 -27
42 -31 78 -26 99 11 129 81 91 211 -23 79 -69 126 -122 126 -22 0 -50 -6 -64
-13z m90 -55 c28 -28 43 -69 55 -144 5 -31 2 -42 -19 -63 -22 -22 -28 -23 -50
-14 -32 15 -66 87 -73 155 -5 43 -2 55 16 73 28 28 37 27 71 -7z"/>
<path d="M2793 393 c-1 -10 -8 -56 -17 -103 -9 -47 -18 -103 -21 -125 -4 -22
-9 -48 -12 -59 -5 -20 11 -36 38 -36 13 0 19 14 25 57 4 32 7 61 6 64 -1 4 25
4 56 2 52 -4 60 -2 84 22 37 37 44 77 21 122 -19 39 -49 54 -133 67 -39 6 -46
4 -47 -11z m92 -43 c27 0 46 -31 39 -64 -3 -17 -10 -35 -14 -39 -8 -10 -68
-13 -76 -4 -3 3 -2 31 1 62 6 43 11 55 22 51 8 -3 21 -6 28 -6z"/>
<path d="M3921 367 c-53 -19 -73 -65 -68 -157 6 -127 58 -191 143 -177 45 8
70 29 84 73 13 39 7 54 -18 49 -9 -2 -20 -4 -24 -4 -5 -1 -8 -11 -8 -24 0 -31
-18 -47 -52 -47 -24 0 -32 7 -48 43 -24 53 -27 153 -4 185 23 34 61 29 85 -12
15 -25 25 -33 39 -29 28 7 25 37 -7 73 -33 35 -74 45 -122 27z"/>
<path d="M3022 206 l-69 -161 26 -5 c23 -5 27 -1 40 36 l14 41 46 -5 c51 -5
61 -14 61 -54 0 -29 35 -57 51 -41 6 6 1 65 -11 149 -29 200 -27 191 -60 196
-29 4 -30 3 -98 -156z m93 38 c3 -27 8 -59 10 -71 6 -25 3 -26 -42 -17 l-30 6
26 68 c14 38 27 68 28 66 2 -1 5 -25 8 -52z"/>
<path d="M3287 183 c-26 -87 -47 -163 -47 -169 0 -19 43 -8 51 13 4 11 20 67
34 124 15 57 30 107 34 111 4 4 17 -43 30 -105 29 -145 34 -157 67 -157 30 0
31 -14 -17 187 -16 68 -29 130 -29 138 0 11 -11 15 -38 15 l-38 0 -47 -157z"/>
<path d="M3577 333 c-6 -10 -87 -311 -87 -324 0 -5 11 -9 24 -9 20 0 25 7 34
43 l11 43 50 1 49 2 11 -43 c9 -36 14 -42 36 -42 16 0 25 6 25 15 0 9 -20 83
-45 165 -25 82 -45 151 -45 153 0 7 -59 3 -63 -4z m57 -168 c7 -35 7 -35 -30
-35 -36 0 -36 1 -30 32 3 18 11 50 17 72 l11 41 13 -38 c7 -21 16 -53 19 -72z"/>
<path d="M4675 268 c-11 -6 -21 -12 -23 -13 -5 -4 21 -55 28 -55 3 0 14 6 24
13 14 10 15 18 7 40 -12 31 -10 30 -36 15z"/>
<path d="M4172 132 c-19 -3 -23 -9 -20 -35 3 -28 6 -32 28 -29 33 5 34 7 24
39 -7 22 -14 27 -32 25z"/>
</g>
</svg>
