<svg width="100" height="100" viewBox="0 0 100 100" fill="none" xmlns="http://www.w3.org/2000/svg">
<path fill-rule="evenodd" clip-rule="evenodd" d="M49.389 26.9346L49.2575 27.5357L48.863 26.7092C49.0133 26.8031 49.2011 26.897 49.389 26.9346ZM38.8122 72.2389H38.9813V72.0323L39.2255 72.0511L39.6013 71.9759L39.7891 71.7318L39.977 71.3561L40.24 70.5672L40.4655 70.2104L40.5406 69.6281L40.6345 69.4403L41.123 69.1961L41.6678 69.027L41.3108 66.6792L41.2357 66.6604L41.0478 66.5853L40.8788 66.435V66.1345L41.0103 66.003L41.2545 65.9654L41.5738 66.0218L41.912 66.2096L42.1374 66.3223L42.4756 66.5101L42.5883 66.3599L42.4756 66.1908L42.4005 65.9842H42.3065L42.2689 65.9091L42.3253 65.6649L42.3065 65.5146L42.1938 65.4207L42.1187 65.1765L42.2502 65.0263L42.6259 65.0451L43.3398 65.0826L43.6216 65.4207L43.6028 65.7776L43.6591 66.0406L43.8282 65.7776V65.2329H45.6129V63.8617L46.1389 63.317L46.2892 58.2644C46.2329 58.3959 46.1765 58.5274 46.1202 58.6401C45.5002 58.6401 44.9742 58.3396 44.5421 57.9076C44.2791 57.6446 44.0912 57.3441 43.8846 56.9872C43.8282 56.9121 43.6779 56.8369 43.6404 56.743C43.321 56.574 43.0204 56.4989 42.7386 56.5364C42.4568 56.574 42.175 56.7243 41.912 56.9872C41.8556 56.6303 41.7241 56.3486 41.5175 56.142C41.7429 55.9542 41.8556 55.6912 41.912 55.3531C42.2689 55.5221 42.532 55.6724 42.7574 55.6724C43.2646 55.6912 43.5088 55.3719 43.4713 55.3719C43.3022 55.2592 43.0016 55.1465 42.7386 55.1465H42.3065L42.2314 55.0526L42.7386 54.9399V54.8647L42.2502 54.7896L42.2126 54.5079H42.7198L42.8325 54.3764L43.1519 54.3576L43.1707 54.1886L43.2458 54.3764H43.4901C43.4901 54.1134 43.321 53.888 43.2646 53.6439C43.2083 53.4372 43.1895 52.9865 43.3773 52.8174C43.4337 52.7611 43.5276 52.7235 43.6216 52.7235C43.8282 52.7235 43.9597 52.855 43.9597 53.0428C43.9597 53.1743 43.8846 53.2494 43.7906 53.3246C43.7531 53.3433 43.7343 53.3809 43.6779 53.3809C43.5464 53.4185 44.2415 54.0195 44.2603 54.0195H45.3499V54.4891H46.2704C46.2704 54.3013 46.2704 54.0946 46.2704 53.9068H46.402L46.7965 39.1998C46.7589 39.275 46.7213 39.3501 46.6837 39.4252C46.0638 39.3313 45.519 38.9557 45.0869 38.317C44.9178 38.0729 44.7675 37.7911 44.636 37.4718C44.467 37.3591 44.3167 37.3028 44.1288 37.2464C43.9034 37.2088 43.6591 37.2088 43.3961 37.2652C43.5652 36.9647 43.5088 36.7581 43.3398 36.6078C43.6404 36.6266 43.7531 36.4387 43.7719 36.1382C43.9597 36.2697 44.1664 36.3824 44.373 36.4575C44.4857 36.4951 44.6172 36.5139 44.73 36.5139C44.7675 36.5139 44.8051 36.5139 44.8239 36.5327C44.8239 36.5139 44.8239 36.4951 44.8239 36.4763C44.8051 36.42 44.7863 36.3824 44.7675 36.326C44.7112 36.2321 44.6548 36.1382 44.5797 36.0443C44.5609 35.988 44.5233 35.9504 44.5045 35.9128C44.467 35.9316 44.4106 35.9316 44.373 35.9316C44.3354 35.9692 44.2979 35.988 44.2415 36.0255C44.2415 36.0443 44.2415 36.0443 44.2415 36.0631C44.2039 36.0819 44.1852 36.1007 44.1476 36.1382C44.11 36.1194 44.0724 36.1194 44.0349 36.1194C44.0161 36.0819 43.9973 36.0631 43.9597 36.0255C43.9785 35.9692 43.9785 35.9316 43.9785 35.8753C44.0161 35.8377 44.0349 35.8189 44.0537 35.7813C44.11 35.725 44.1664 35.6686 44.2227 35.6311C44.2227 35.6123 44.2415 35.5935 44.2415 35.5747C44.2979 35.5184 44.3354 35.4433 44.3918 35.3681C44.373 35.2742 44.3542 35.1991 44.3354 35.1239C44.3354 35.1239 44.3542 35.1052 44.373 35.1052C44.4106 35.1803 44.4482 35.2554 44.5045 35.3118C44.5233 35.3118 44.5421 35.3118 44.5609 35.3118C44.636 35.3681 44.7112 35.4245 44.8051 35.462C44.8239 35.5184 44.8615 35.556 44.899 35.6123C45.0305 35.7062 45.1808 35.8001 45.3311 35.9128C45.3687 35.8753 45.4063 35.8377 45.4438 35.8189C45.4438 35.7813 45.4626 35.7438 45.4626 35.7062C45.4438 35.2742 45.4438 34.8422 45.4438 34.3914C45.6505 34.3726 45.8196 34.3726 46.0262 34.3538C46.0262 34.6732 46.0262 35.0112 46.045 35.3493C46.045 35.3869 46.0262 35.4433 46.0638 35.4808C46.1389 35.5747 46.2329 35.6311 46.3456 35.6686C46.5147 35.7438 46.7025 35.8189 46.8904 35.8377L46.9843 32.3816C46.045 32.2689 45.4251 32.0811 45.4251 31.7618C45.4251 31.7055 45.4438 31.6491 45.4814 31.6115H45.1433V30.9541C45.0305 30.879 44.993 30.7288 45.0118 30.5785C45.0493 30.3531 45.1808 30.0714 45.2748 29.8647C45.3123 29.7896 45.3123 29.7333 45.2936 29.6957C45.2936 29.6769 45.2748 29.6769 45.2748 29.6581H45.256C45.2372 29.6769 45.1996 29.6957 45.1996 29.752L45.1433 29.7333C45.1621 29.6581 45.1996 29.6206 45.2372 29.6206C45.256 29.6018 45.2748 29.6018 45.2936 29.6206C45.3123 29.6206 45.3311 29.6393 45.3311 29.6581V29.5454H47.2849V28.7566H48.9757V28.7378L48.4497 26.3336C48.3557 26.1833 48.2994 26.033 48.2994 25.9016V25.1127H47.8109V24.7558H48.2994V24.3989H51.2676V24.7558H51.7373V25.1127H51.2676V25.9016C51.2676 26.033 51.2113 26.1645 51.1173 26.296L50.5913 28.7378V28.7566H52.2821V29.5454H54.1419V29.6769C54.1419 29.6769 54.1419 29.6769 54.1419 29.6581C54.1419 29.6393 54.1607 29.6393 54.1795 29.6206C54.1983 29.6018 54.2171 29.6018 54.2359 29.6206C54.2735 29.6206 54.311 29.6581 54.3486 29.7333L54.2922 29.752C54.2735 29.6957 54.2547 29.6769 54.2359 29.6581C54.2171 29.6581 54.2171 29.6581 54.1983 29.6581C54.1983 29.6769 54.1983 29.6769 54.1795 29.6957C54.1607 29.7333 54.1607 29.7896 54.1983 29.8647C54.311 30.0714 54.4425 30.3531 54.4613 30.5785C54.4801 30.6912 54.4613 30.8039 54.405 30.8978H54.4801V31.6115H54.1983C54.2171 31.6491 54.2359 31.7055 54.2359 31.7618C54.2359 32.0999 53.5971 32.3065 52.5827 32.4004L52.6766 35.8377C52.8269 35.8001 52.996 35.7438 53.1463 35.6686C53.2402 35.6311 53.3529 35.5747 53.4281 35.4808C53.4469 35.4433 53.4469 35.3869 53.4469 35.3493C53.4469 35.0112 53.4469 34.6732 53.4656 34.3538C53.6723 34.3726 53.8414 34.3726 54.048 34.3914C54.048 34.8422 54.048 35.2742 54.0292 35.7062C54.0292 35.7438 54.048 35.7813 54.048 35.8189C54.0856 35.8377 54.1232 35.8753 54.1607 35.9128C54.311 35.8001 54.4613 35.7062 54.5928 35.6123C54.6304 35.556 54.668 35.5184 54.6868 35.462C54.7619 35.4245 54.837 35.3681 54.931 35.3118C54.9498 35.3118 54.9685 35.3118 54.9873 35.3118C55.0249 35.2554 55.0813 35.1803 55.1188 35.1052C55.1376 35.1052 55.1376 35.1239 55.1564 35.1239C55.1376 35.1991 55.1188 35.2742 55.0813 35.3681C55.1376 35.4433 55.194 35.5184 55.2503 35.5747C55.2503 35.5935 55.2691 35.6123 55.2691 35.6311C55.3255 35.6686 55.3819 35.725 55.4382 35.7813C55.457 35.8189 55.4758 35.8377 55.4946 35.8753C55.5134 35.9316 55.5134 35.9692 55.5134 36.0255C55.4946 36.0631 55.4758 36.0819 55.457 36.1194C55.4194 36.1194 55.3819 36.1194 55.3443 36.1382C55.3067 36.1007 55.2879 36.0819 55.2503 36.0631C55.2503 36.0443 55.2503 36.0443 55.2316 36.0255C55.194 35.988 55.1564 35.9692 55.1188 35.9316C55.0625 35.9316 55.0249 35.9316 54.9873 35.9128C54.9498 35.9504 54.931 35.988 54.8934 36.0443C54.837 36.1382 54.7807 36.2321 54.7243 36.326C54.7055 36.3824 54.6868 36.42 54.668 36.4763C54.668 36.4951 54.668 36.5139 54.668 36.5327C54.6868 36.5139 54.7243 36.5139 54.7619 36.5139C54.8746 36.5139 54.9873 36.4951 55.1001 36.4575C55.3255 36.3824 55.5321 36.2697 55.72 36.1382C55.7388 36.4387 55.8515 36.6266 56.1333 36.6078C55.983 36.7581 55.9267 36.9647 56.0957 37.2652C55.8327 37.2088 55.5885 37.2088 55.3631 37.2464C55.1752 37.3028 55.0249 37.3591 54.8558 37.4718C54.7243 37.7911 54.574 38.0729 54.405 38.317C53.9729 38.9557 53.4093 39.3313 52.8081 39.4252C52.7893 39.4064 52.7705 39.3877 52.7705 39.3501L53.1651 54.4891H53.9917V54.0195H55.0813C55.0813 54.0195 55.7952 53.4185 55.6449 53.3809C55.5885 53.3809 55.5697 53.3433 55.5321 53.3246C55.4382 53.2494 55.3631 53.1743 55.3631 53.0428C55.3631 52.855 55.4946 52.7235 55.7012 52.7235C55.7952 52.7235 55.8891 52.7611 55.9454 52.8174C56.1333 52.9865 56.1145 53.4372 56.0582 53.6439C56.0018 53.888 55.8327 54.1134 55.8327 54.3764H56.0769L56.1521 54.1886L56.1897 54.3576L56.509 54.3764L56.603 54.5079H57.129L57.0726 54.7896L56.5842 54.8647V54.9399L57.0914 55.0526L57.0163 55.1465H56.5842C56.34 55.1465 56.0394 55.2592 55.8515 55.3719C55.8139 55.3719 56.0582 55.6912 56.5654 55.6724C56.7908 55.6724 57.0538 55.5221 57.4108 55.3531C57.4671 55.6912 57.5799 55.9542 57.8241 56.142C57.5986 56.3486 57.4671 56.6303 57.4108 56.9872C57.1478 56.7243 56.8848 56.574 56.5842 56.5364C56.3024 56.4989 56.0018 56.574 55.6824 56.743C55.6449 56.8369 55.4946 56.9121 55.457 56.9872C55.2316 57.3441 55.0437 57.6446 54.7995 57.9076C54.3674 58.3208 53.8789 58.6213 53.2778 58.6401L53.4093 63.317L53.9541 63.8617V65.2329H55.7388V66.0781L55.9267 65.9091L56.1897 65.7588L56.2836 65.2892L56.3024 65.0075L56.3212 64.9136L56.2648 64.7821V64.5379L56.4715 64.5004L56.7533 64.5567L56.772 64.6131L56.7533 64.6882L56.7908 64.707L56.9223 64.6318L57.0726 64.6131H57.2417L57.4484 64.7258L57.5235 64.7633L57.5611 64.5191L57.5047 64.4064L57.7489 64.1247H57.8053L57.9744 64.4064V64.4816L57.8804 64.5379V64.7445L57.918 64.8009L57.8992 64.9136L57.9368 65.0075L57.8804 65.0638L57.9368 65.1578L57.8992 65.2329L57.918 65.3644L57.7865 65.4958L57.6926 65.5522L57.6174 66.0593L57.5986 66.3786L57.6738 66.4538L57.6362 66.7167L57.6738 66.8858L57.7865 66.8482L57.9368 66.8858L58.0495 67.1487L58.181 67.3554V67.4681L58.1247 67.5244L58.0307 67.6747L58.0119 68.4448L58.0307 68.5199L58.3689 68.7453L58.444 68.7077L58.7446 68.7829L59.0264 68.9143H59.2518L59.5149 68.9519L59.6088 69.1773L59.6276 69.5905V69.8535L59.8154 70.3043L59.9469 70.5109L59.9657 70.5484V70.6424L60.1912 70.7926V71.018L60.21 71.0931L60.3039 71.2246V71.3373L60.2851 71.45L60.4354 71.7318V71.7505L60.7172 71.8632L60.8863 72.0699L60.8299 72.1638L60.6984 72.2389H61.2996V73.1029V74.0796H64.4933V76.8031H35.1113V74.0796H38.8122V73.1029V72.2389ZM39.6388 72.2389H41.3296L41.3108 72.0886L41.4799 71.7881L41.4048 71.4876L41.2357 71.2434L41.029 70.7738L40.9915 70.7363L40.9539 70.9053L40.7848 71.1119L40.5782 71.45L40.2776 71.9196L40.24 72.0135L40.2024 72.2389H39.6388ZM41.5738 66.6416L41.5926 66.8107L42.0247 68.9143L42.3065 68.858V68.5199L42.438 68.2194V68.1067L42.4005 67.9564L42.4756 67.5244L42.532 67.4681L42.4568 67.3366L42.438 67.0924L42.2314 67.1675L42.1374 67.0924L41.8744 66.9234L41.649 66.6416H41.5738ZM45.3311 30.8978V29.8647C45.3311 29.8835 45.3311 29.8835 45.3311 29.8835C45.2184 30.0901 45.1057 30.3531 45.0681 30.5785C45.0493 30.71 45.0681 30.8227 45.1433 30.8978H45.3311ZM54.0856 30.8978V29.6018H53.8414V30.8978H54.0856ZM53.785 30.8978V29.6018H53.5408V30.8978H53.785ZM53.4844 30.8978V29.6018H53.2214V30.8978H53.4844ZM53.1838 30.8978V29.6018H52.9208V30.8978H53.1838ZM52.8833 30.8978V29.6018H52.6203V30.8978H52.8833ZM52.5827 30.8978V29.6018H52.3197V30.8978H52.5827ZM47.2849 29.6018H47.2098C47.2098 30.0338 47.2098 30.4658 47.2098 30.8978H47.2849V29.6018ZM47.1534 30.8978C47.1534 30.4658 47.1534 30.0338 47.1534 29.6018H46.8904C46.8904 30.0338 46.8904 30.4658 46.8904 30.8978H47.1534ZM46.8528 30.8978C46.8528 30.4658 46.8528 30.0338 46.8528 29.6018H46.5898C46.5898 30.0338 46.5898 30.4658 46.5898 30.8978H46.8528ZM46.5522 30.8978C46.5522 30.4658 46.5522 30.0338 46.5522 29.6018H46.2892C46.2892 30.0338 46.2892 30.4658 46.2892 30.8978H46.5522ZM46.2517 30.8978C46.2517 30.4658 46.2517 30.0338 46.2517 29.6018H45.9887C45.9887 30.0338 45.9887 30.4658 45.9887 30.8978H46.2517ZM45.9323 30.8978C45.9323 30.4658 45.9323 30.0338 45.9323 29.6018H45.6881C45.6881 30.0338 45.6881 30.4658 45.6881 30.8978H45.9323ZM45.6317 30.8978C45.6317 30.4658 45.6317 30.0338 45.6317 29.6018H45.3875V30.8978H45.6317ZM54.1419 29.846V30.8978H54.3298C54.405 30.8227 54.4237 30.71 54.405 30.5785C54.3862 30.3531 54.2547 30.0901 54.1607 29.8835C54.1419 29.8835 54.1419 29.8647 54.1419 29.846ZM49.0884 28.7566H49.7271V28.7378L49.2951 27.8362L49.0884 28.7566ZM49.8586 28.7566H50.4786L50.272 27.8362L49.8399 28.7378L49.8586 28.7566ZM48.6751 26.559L49.2199 27.6859L49.032 28.5124L48.6 26.4838C48.6187 26.5026 48.6375 26.5402 48.6751 26.559ZM50.9858 26.465L50.535 28.5124L50.3471 27.6859L50.9107 26.5402C50.9295 26.5214 50.9483 26.5026 50.9858 26.465ZM50.7228 26.6904L50.3095 27.5357L50.178 26.9346C50.3659 26.8783 50.5537 26.8031 50.7228 26.6904ZM50.0653 26.9722L50.2344 27.6859L49.8399 28.5124V26.991C49.915 26.991 49.9902 26.9722 50.0653 26.9722ZM49.7271 26.991V28.5124L49.3326 27.6859L49.5017 26.9722C49.5769 26.9722 49.652 26.991 49.7271 26.991Z" fill="#274795"/>
<path fill-rule="evenodd" clip-rule="evenodd" d="M66.2785 78.4749V82.8889H33.3271V78.4749H66.2785Z" fill="#5FC6F1"/>
<path fill-rule="evenodd" clip-rule="evenodd" d="M83.3735 25.7137V29.8459C72.5338 43.0127 68.1753 21.8444 56.8096 33.5461V29.3951C68.1753 17.6934 72.5338 38.8805 83.3735 25.7137Z" fill="#274795"/>
<path fill-rule="evenodd" clip-rule="evenodd" d="M83.3735 45.2666V49.4176C72.5338 62.5844 68.1753 41.4161 56.8096 53.1178V48.9668C68.1753 37.2651 72.5338 58.4334 83.3735 45.2666Z" fill="#274795"/>
<path fill-rule="evenodd" clip-rule="evenodd" d="M83.3735 35.4811V39.6321C72.5338 52.7989 68.1753 31.6306 56.8096 43.3323V39.1813C68.1753 27.4796 72.5338 48.6667 83.3735 35.4811Z" fill="#5FC6F1"/>
<path fill-rule="evenodd" clip-rule="evenodd" d="M83.3735 55.0526V59.2036C72.5338 72.3704 68.1753 51.1833 56.8096 62.9038V58.7528C68.1753 47.0511 72.5338 68.2194 83.3735 55.0526Z" fill="#5FC6F1"/>
<path fill-rule="evenodd" clip-rule="evenodd" d="M16.1567 25.7137C26.9965 38.8805 31.3549 17.6934 42.7207 29.3951V33.5461C32.6324 23.1592 28.0673 38.6363 19.6134 33.0953V58.302C28.0673 63.8429 32.6324 48.3658 42.7207 58.7528V62.9038C31.3549 51.1833 26.9965 72.3703 16.1567 59.2035V25.7137Z" fill="#5FC6F1"/>
<path fill-rule="evenodd" clip-rule="evenodd" d="M68.4197 84.3354V88.7682H31.1851V84.3354H68.4197Z" fill="#5FC6F1"/>
<path fill-rule="evenodd" clip-rule="evenodd" d="M48.3178 24.8124C48.3178 24.8124 48.1487 24.0423 47.4724 22.9717C46.7773 21.9199 46.9464 20.1731 48.2802 19.4781C49.5952 18.7643 50.6661 18.3511 51.0982 17.5622C51.3048 17.149 51.4363 16.8485 51.5302 16.6043C51.6054 16.3977 51.5115 16.1535 51.6617 16.1347C51.7932 16.0972 51.8496 16.4165 51.8684 16.5292C52.1878 17.6749 51.9248 18.0318 51.5866 18.5953C53.1459 17.7501 53.5216 16.8485 53.9725 14.9326C54.0288 14.7072 53.9913 14.2001 54.1603 14.2001C54.3858 14.1813 54.4421 14.6133 54.4985 14.8763C55.0621 17.0175 55.0245 18.8958 52.7514 20.436C51.7557 21.0934 52.3193 24.4368 50.6097 24.7561L49.7267 24.9063C48.9941 22.69 49.7267 20.7365 50.7412 20.1918C50.7412 20.1918 49.5013 20.7365 49.1256 21.8635C48.7499 23.0093 49.4074 24.7749 49.4074 24.7749L48.3178 24.8124Z" fill="#274795"/>
<path d="M8.06002 76.4652L7.70308 76.6906L7.271 76.0332L11.3101 73.4036L11.7422 74.061L9.469 75.5449C9.45022 75.5449 9.26235 75.6763 8.90541 75.883C9.18721 75.8078 9.52536 75.7515 9.8823 75.7327L12.193 75.5824L12.5875 75.3195L13.0384 75.9769L8.98056 78.6253L8.54847 77.9679L10.6338 76.5967C10.6713 76.5779 10.8968 76.4277 11.3476 76.1647C11.0658 76.221 10.7277 76.2774 10.3708 76.2962L8.06002 76.4652ZM13.339 76.5779L14.0717 77.4983L11.93 80.3908L15.2928 79.0009L15.9879 79.8837L12.193 82.8702L11.7234 82.2879L14.9734 79.7522L11.0095 81.3863L10.6525 80.9356L13.1887 77.5171L9.95745 80.0715L9.52536 79.5456L13.339 76.5779ZM16.3636 80.3157L18.355 82.2504L17.9041 82.7011L16.4951 81.33L15.5182 82.3067L16.6266 83.3773L16.157 83.8281L15.0674 82.7575L13.9965 83.8281L15.4243 85.218L14.9734 85.6876L12.9633 83.7342L16.3636 80.3157ZM18.7495 82.6636L19.3319 83.2083L17.9792 84.6546L19.0313 85.6125L20.3839 84.1662L20.9851 84.6921L17.6974 88.2233L17.1151 87.6786L18.5616 86.1196L17.5284 85.1617L16.063 86.7207L15.4619 86.1948L18.7495 82.6636ZM19.4258 89.0685L19.1628 89.4066L18.524 88.9183L21.4923 85.1241L22.1122 85.6125L20.459 87.735C20.4403 87.7725 20.29 87.9416 20.027 88.2609C20.2712 88.0918 20.5718 87.9416 20.9099 87.7913L23.0516 86.9085L23.3334 86.5328L23.9721 87.0212L21.0039 90.8153L20.3651 90.327L21.9056 88.3736C21.9244 88.3548 22.0935 88.1294 22.4316 87.735C22.1874 87.8852 21.8868 88.0355 21.5487 88.1857L19.4258 89.0685ZM26.4895 88.6365L27.2409 89.1061L25.7192 93.8394L25.0429 93.4074L25.4374 92.2241L24.2351 91.4727L23.3334 92.318L22.6946 91.9235L26.4895 88.6365ZM25.6441 91.623L26.3768 89.4818L24.7236 91.0407L25.6441 91.623ZM26.5083 93.4637L29.2511 90.1955L30.3219 90.6839L29.3826 94.8161L29.6268 94.9288L28.8753 96.469L28.3869 96.2248L28.7438 95.2669L26.5458 94.215L26.0198 95.0978L25.5126 94.8537L26.2453 93.3322L26.5083 93.4637ZM27.147 93.7643L28.6311 94.4592L29.4577 91.191L29.2887 91.0971L27.147 93.7643ZM31.7872 91.3788L32.8956 91.8108L32.5011 95.3796L34.6991 92.5246L35.77 92.9378L33.9852 97.4081L33.2714 97.1264L34.8119 93.3322L32.2193 96.7132L31.6745 96.4878L32.1442 92.2804L30.6225 96.0745L30.0025 95.8304L31.7872 91.3788ZM35.9202 97.5772L35.8075 97.9904L35.0373 97.7838L36.2584 93.1444L37.0286 93.351L36.3523 95.9431C36.3335 95.9806 36.2772 96.1872 36.1457 96.5817C36.3148 96.3375 36.5214 96.0933 36.7844 95.8304L38.4001 94.1775L38.5128 93.7267L39.283 93.9333L38.0619 98.5727L37.2917 98.3661L37.9304 95.9618C37.9304 95.9431 38.0055 95.6801 38.1558 95.173C37.9868 95.4171 37.7801 95.6613 37.5171 95.9243L35.9202 97.5772ZM39.9593 94.1399L41.1429 94.3465C41.5186 94.4029 41.8192 94.4968 42.0446 94.6095C42.2513 94.7222 42.4391 94.91 42.5518 95.173C42.6646 95.4359 42.7021 95.7365 42.6458 96.0933C42.5894 96.3939 42.4767 96.6568 42.3076 96.8446C42.1385 97.0513 41.9319 97.1827 41.7065 97.2579C41.4622 97.3142 41.1053 97.2954 40.6544 97.2203L40.2411 97.164L39.9405 99.0047L39.1327 98.8732L39.9593 94.1399ZM40.6356 94.8912L40.3538 96.5253L40.7484 96.6005C41.1053 96.6568 41.3495 96.638 41.4998 96.5253C41.6689 96.4126 41.7628 96.2248 41.8192 95.9243C41.8567 95.7177 41.838 95.5298 41.7816 95.3796C41.7065 95.2293 41.6313 95.1354 41.5186 95.0791C41.4247 95.0415 41.2556 94.9851 41.0301 94.9476L40.6356 94.8912ZM44.1299 94.7973L45.0129 94.91L45.7455 99.8123L44.9377 99.7184L44.7686 98.4975L43.3597 98.3285L42.9276 99.493L42.1761 99.3991L44.1299 94.7973ZM44.6935 97.8589L44.3929 95.605L43.6039 97.7274L44.6935 97.8589ZM46.9479 99.9063L46.1964 99.8875L47.643 95.1354L48.6386 95.1542L49.747 99.9814L48.9016 99.9626L48.0375 95.9431L46.9479 99.9063ZM51.0809 95.173L51.9826 95.1542L53.3916 99.9063L52.565 99.925L52.2456 98.7417L50.8179 98.7793L50.5549 99.9814L49.7846 100L51.0809 95.173ZM52.0578 98.1219L51.4566 95.9431L50.9682 98.1407L52.0578 98.1219ZM57.6561 97.765L58.4076 97.8026C58.37 98.8732 57.9003 99.4555 57.0174 99.5494C56.4162 99.6245 55.9653 99.4555 55.6272 99.0422C55.289 98.629 55.0824 98.0467 54.9884 97.2954C54.9133 96.4878 54.9884 95.8679 55.2327 95.3984C55.4957 94.9476 55.909 94.6846 56.4726 94.6095C57.3555 94.5156 57.9379 95.0039 58.2197 96.0745L57.487 96.2624C57.3367 95.5486 57.0174 95.2105 56.5665 95.2669C55.9465 95.342 55.7023 95.9994 55.8526 97.2579C55.9841 98.4224 56.3598 98.9671 56.961 98.892C57.2052 98.8732 57.3931 98.7605 57.487 98.5727C57.581 98.3848 57.6561 98.1219 57.6561 97.765ZM59.2154 98.197L60.0044 98.0467L60.1735 98.9295L59.3845 99.0798L59.2154 98.197ZM65.1519 95.2481C65.3773 96.037 65.3961 96.6756 65.227 97.1452C65.0392 97.6335 64.6822 97.9528 64.1374 98.1031C63.5926 98.2534 63.1229 98.1594 62.7284 97.8401C62.3151 97.502 62.0145 96.9573 61.7891 96.1497C61.5825 95.3796 61.5449 94.741 61.7328 94.2526C61.9018 93.7643 62.2588 93.4637 62.8036 93.3135C63.3484 93.1632 63.818 93.2571 64.2126 93.5764C64.6259 93.8957 64.9264 94.4592 65.1519 95.2481ZM64.3441 95.4735C64.1938 94.91 64.0059 94.4968 63.7805 94.215C63.5738 93.9521 63.292 93.8394 62.9727 93.9333C62.6533 94.0272 62.4842 94.2338 62.4279 94.5907C62.3903 94.9476 62.4466 95.3984 62.5969 95.9431C62.7472 96.469 62.9351 96.8822 63.1417 97.164C63.3672 97.4645 63.6302 97.5584 63.9683 97.4645C64.2877 97.3893 64.4568 97.164 64.5131 96.8259C64.5507 96.469 64.4944 96.0182 64.3441 95.4735ZM66.4294 96.2999L67.1808 96.037L67.4814 96.8822L66.7299 97.1452L66.4294 96.2999ZM67.7068 91.6418L68.7777 91.1534L71.1072 93.9145L70.5624 90.3458L71.5956 89.895L73.6058 94.2526L72.9107 94.5531L71.2199 90.8341L71.8774 95.0227L71.3326 95.2669L68.6086 91.9987L70.3181 95.7365L69.6982 95.9994L67.7068 91.6418ZM72.9482 89.0498L73.7185 88.599L77.2879 92.0738L76.574 92.487L75.7098 91.6042L74.4887 92.318L74.8457 93.5013L74.1693 93.877L72.9482 89.0498ZM75.2402 91.1534L73.6433 89.5193L74.3008 91.6981L75.2402 91.1534ZM74.9959 87.7913L75.6535 87.3217L76.9873 89.1812L76.8558 86.4953L77.5321 86.0069L77.5509 88.1482L80.5191 89.7823L79.8053 90.2894L77.5321 88.9746V89.9513L78.4526 91.2286L77.8139 91.6981L74.9959 87.7913ZM78.7157 85.0678L79.4295 84.5231L83.3935 87.5471L82.7547 88.0355L81.7778 87.2654L80.6507 88.1106L81.1391 89.2564L80.5379 89.7072L78.7157 85.0678ZM81.2706 86.8709L79.4859 85.4434L80.3876 87.5283L81.2706 86.8709ZM80.444 83.5276L81.3082 82.7011C81.5712 82.4382 81.8154 82.2504 82.0408 82.1377C82.2663 82.025 82.5293 81.9874 82.8111 82.0625C83.0929 82.1189 83.3747 82.2691 83.6189 82.5133C83.8256 82.7387 83.9758 82.9829 84.051 83.2458C84.1074 83.49 84.0886 83.7342 84.0134 83.9596C83.9195 84.185 83.7128 84.4667 83.3747 84.786L83.0741 85.0678L84.4079 86.4014L83.8256 86.9649L80.444 83.5276ZM81.4585 83.4149L82.6232 84.617L82.9238 84.3352C83.168 84.0911 83.2995 83.8845 83.2995 83.6966C83.2995 83.5088 83.2056 83.3022 82.999 83.0956C82.8487 82.9265 82.6796 82.8326 82.5293 82.7951C82.3602 82.7575 82.2287 82.7763 82.1348 82.8326C82.0408 82.8702 81.9093 82.9829 81.7403 83.1519L81.4585 83.4149ZM86.9253 80.2594C87.5453 80.8041 87.921 81.33 88.0337 81.8183C88.1464 82.3255 88.0337 82.7763 87.658 83.1895C87.2822 83.6027 86.8314 83.7905 86.3242 83.7342C85.7981 83.6778 85.2345 83.3773 84.6146 82.8326C83.9946 82.2879 83.6377 81.762 83.5062 81.2736C83.3935 80.7665 83.525 80.3157 83.9007 79.8837C84.2764 79.4705 84.7085 79.3014 85.2345 79.3578C85.7418 79.4141 86.3054 79.7147 86.9253 80.2594ZM86.3617 80.8792C85.9296 80.5035 85.5539 80.2594 85.2158 80.1279C84.8776 80.0152 84.6146 80.0903 84.3892 80.3345C84.1637 80.5787 84.1261 80.8604 84.2952 81.1797C84.4455 81.4803 84.7461 81.8371 85.1782 82.2128C85.5915 82.5884 85.9672 82.8326 86.3054 82.9453C86.6435 83.0768 86.9253 83.0204 87.1507 82.7575C87.3762 82.5133 87.4138 82.2316 87.2447 81.931C87.0944 81.6117 86.8126 81.2549 86.3617 80.8792ZM85.5163 78.0993L86.4369 76.9536C86.6623 76.6718 86.869 76.484 87.0192 76.3713C87.1883 76.2586 87.395 76.2023 87.6392 76.2398C87.8834 76.2586 88.1276 76.3525 88.3531 76.5404C88.7664 76.8784 88.8979 77.2729 88.7288 77.7612C89.236 77.4232 89.7245 77.4419 90.2129 77.8364C90.4947 78.0618 90.6638 78.3435 90.7389 78.6816C90.7953 79.0197 90.6262 79.4329 90.2317 79.9401L89.3112 81.0858L85.5163 78.0993ZM87.5828 78.738L87.9022 78.3435C88.1089 78.0618 88.2028 77.8364 88.184 77.6673C88.1464 77.4983 88.0525 77.348 87.8834 77.2165C87.6956 77.0663 87.5265 77.0099 87.3574 77.0475C87.1883 77.0851 87.038 77.2165 86.8502 77.4232L86.4932 77.8739L87.5828 78.738ZM89.2924 80.0903L89.6869 79.5832C90.0626 79.1324 90.0439 78.738 89.6305 78.4186C89.4803 78.2872 89.2924 78.2308 89.0857 78.2308C88.8791 78.212 88.6724 78.3623 88.4282 78.6628L88.0525 79.1136L89.2924 80.0903ZM88.1276 74.4367L88.5973 73.6854L93.3878 75.188L92.937 75.8642L91.7534 75.4697L91.002 76.6531L91.8473 77.5546L91.434 78.1933L88.1276 74.4367ZM91.1335 75.2631L88.973 74.5494L90.5511 76.1835L91.1335 75.2631Z" fill="#274795"/>
<path d="M8.51024 68.0128L4.09544 69.8911L3.19369 67.7498L3.79485 67.4869L4.39602 68.8956L8.20966 67.2803L8.51024 68.0128ZM4.15179 63.0353C4.94082 62.7911 5.57956 62.7536 6.06801 62.9038C6.55645 63.0729 6.87582 63.411 7.02611 63.9557C7.19519 64.4816 7.12005 64.9512 6.81946 65.3644C6.50009 65.7588 5.95529 66.0969 5.16626 66.3223C4.37723 66.5665 3.75728 66.6041 3.26883 66.4538C2.78039 66.2848 2.44223 65.9467 2.29194 65.402C2.12286 64.876 2.19801 64.4065 2.51738 63.9932C2.81796 63.5988 3.38155 63.2795 4.15179 63.0353ZM4.39602 63.8242C3.85121 63.9932 3.4567 64.1999 3.1749 64.4065C2.89311 64.6319 2.81796 64.9136 2.91189 65.2141C3.00582 65.5334 3.23126 65.7025 3.5882 65.7401C3.92636 65.7588 4.37723 65.7025 4.92204 65.5334C5.44806 65.3644 5.86136 65.1766 6.14315 64.9512C6.42495 64.7446 6.51888 64.4628 6.40616 64.1435C6.31223 63.8242 6.10558 63.6552 5.74864 63.6364C5.41048 63.5988 4.95961 63.6552 4.39602 63.8242ZM4.15179 59.6168L4.05786 58.8843C5.12869 58.7528 5.78621 59.1097 6.01165 59.9737C6.16194 60.5372 6.06801 61.0256 5.71107 61.42C5.35412 61.7957 4.80932 62.0962 4.07665 62.284C3.30641 62.4906 2.66767 62.5094 2.16044 62.3404C1.67199 62.1525 1.35262 61.7957 1.20233 61.2322C0.976893 60.3869 1.37141 59.7483 2.38587 59.3163L2.68646 60.0113C2.01014 60.2742 1.72835 60.6123 1.84107 61.0631C1.99136 61.6642 2.68646 61.7957 3.90757 61.4576C5.03475 61.157 5.5232 60.7062 5.37291 60.124C5.29776 59.8798 5.16626 59.7295 4.95961 59.6544C4.77175 59.5793 4.48995 59.5793 4.15179 59.6168ZM3.96393 57.2126L0.826602 59.1097L0.695097 58.3208L2.96825 57.0248L0.432087 56.6304L0.319369 55.9166L4.07665 56.5552C4.54631 56.6491 4.88446 56.7431 5.07233 56.8745C5.26019 57.0248 5.37291 57.2502 5.42927 57.5695L5.48563 57.8888L4.80932 58.0015L4.75296 57.6822C4.73417 57.6071 4.71539 57.5319 4.64024 57.438C4.58388 57.3629 4.4148 57.2878 4.15179 57.2314L3.96393 57.2126ZM4.45238 55.1465L0.244223 54.5455L0.112718 53.3809L4.11422 52.0098L4.09544 51.7468L5.76742 51.559L5.84257 52.1037L4.8281 52.3103L5.07233 54.7145L6.10558 54.6957L6.16194 55.2404L4.48995 55.4095L4.45238 55.1465ZM4.37723 54.4328L4.20815 52.8362L0.976893 53.8505L0.995679 54.0383L4.37723 54.4328ZM0 50.2442V49.3614L4.79053 48.0842V48.873L3.5882 49.1736V50.5823L4.79053 50.8828V51.6341L0 50.2442ZM2.96825 49.3426L0.770242 49.8873L2.96825 50.432V49.3426ZM0.093932 47.2953L0.169078 46.112C0.187864 45.7363 0.225437 45.4358 0.319369 45.1916C0.394514 44.9662 0.563592 44.7784 0.826602 44.6281C1.07082 44.4778 1.37141 44.4215 1.70956 44.4403C2.02893 44.4591 2.29194 44.5342 2.51738 44.6657C2.74281 44.8159 2.89311 45.0038 2.98704 45.2292C3.06218 45.4546 3.09976 45.7926 3.08097 46.2434L3.06218 46.6567L4.92204 46.7694L4.88446 47.5582L0.093932 47.2953ZM0.751456 46.544L2.42345 46.6379L2.44223 46.2434C2.46102 45.8866 2.40466 45.6424 2.29194 45.4921C2.16044 45.3606 1.95379 45.2855 1.6532 45.2667C1.44655 45.2479 1.25869 45.2855 1.1084 45.3606C0.976893 45.4546 0.882961 45.5485 0.845388 45.6424C0.807815 45.7551 0.789029 45.9241 0.770242 46.1495L0.751456 46.544ZM3.98272 41.266L4.18937 40.5522C5.22262 40.8715 5.67349 41.4726 5.5232 42.3554C5.42927 42.9376 5.14747 43.3321 4.65903 43.5387C4.17058 43.7453 3.56942 43.8017 2.81796 43.6702C2.02893 43.5575 1.44655 43.3133 1.05204 42.9376C0.67631 42.5808 0.544806 42.1112 0.619951 41.5477C0.770242 40.6837 1.39019 40.2517 2.4798 40.2705V41.0218C1.74714 40.9842 1.35262 41.1908 1.27748 41.6416C1.18354 42.2615 1.74714 42.6559 3.00582 42.8625C4.17058 43.0316 4.79053 42.825 4.88446 42.2239C4.92204 41.9797 4.86568 41.7919 4.71539 41.6416C4.54631 41.4914 4.30209 41.3599 3.98272 41.266ZM1.1084 39.4065L1.82228 36.5703L2.46102 36.7393L2.19801 37.7724L6.19951 38.7678L6.01165 39.5379L2.01014 38.5425L1.76592 39.5755L1.1084 39.4065ZM1.99136 35.9692L2.40466 34.5793C2.51738 34.2224 2.6301 33.9594 2.74281 33.8092C2.85553 33.6401 3.02461 33.5274 3.25005 33.4523C3.47548 33.3959 3.73849 33.3959 4.02029 33.4899C4.52752 33.6401 4.79053 33.9782 4.80932 34.4666C5.14747 33.9782 5.61713 33.828 6.2183 33.997C6.55645 34.1097 6.81946 34.3163 7.00733 34.5981C7.19519 34.8986 7.19519 35.3494 7.00733 35.9504L6.57524 37.3591L1.99136 35.9692ZM4.11422 35.8002L4.26451 35.3118C4.35844 34.9737 4.37723 34.7483 4.2833 34.5981C4.18937 34.4478 4.03908 34.3539 3.85121 34.2787C3.60699 34.2224 3.43791 34.2224 3.28762 34.3163C3.15612 34.4102 3.0434 34.5793 2.96825 34.8422L2.79917 35.4057L4.11422 35.8002ZM6.18073 36.4388L6.36859 35.8189C6.53767 35.2555 6.38738 34.9174 5.88014 34.7483C5.69228 34.692 5.50442 34.7108 5.31655 34.7859C5.12869 34.8422 4.9784 35.0676 4.86568 35.4245L4.6966 35.988L6.18073 36.4388ZM3.43791 31.6867L4.50874 29.1698L5.09111 29.414L4.32087 31.2171L5.57956 31.7431L6.18073 30.3343L6.7631 30.5973L6.18073 32.006L7.55213 32.5883L8.32237 30.7663L8.92354 31.0105L7.83393 33.565L3.43791 31.6867ZM4.84689 28.5312L5.18505 27.8174L6.98854 28.6439L7.57092 27.3666L5.78621 26.5214L6.10558 25.8077L10.464 27.8362L10.1259 28.55L8.19087 27.6484L7.5897 28.9256L9.5247 29.8272L9.18655 30.5597L4.84689 28.5312ZM6.93218 24.5868L7.3267 23.9106L9.03626 24.9249L9.76893 23.7228L8.05937 22.6897L8.47267 22.0135L12.5869 24.4741L12.1736 25.1691L10.3513 24.0609L9.61864 25.2817L11.4409 26.3712L11.0276 27.0473L6.93218 24.5868ZM13.1693 23.704L9.33684 20.8114L9.8065 20.1916L11.2906 21.2998L11.7039 20.7739C11.9106 20.4921 12.1172 20.2855 12.3051 20.1728C12.4742 20.0601 12.6996 20.0413 12.9626 20.0789C13.2444 20.1165 13.5074 20.2479 13.7704 20.4358C14.1274 20.7175 14.334 21.018 14.428 21.3561C14.5031 21.6942 14.4092 22.0511 14.1274 22.408L13.1693 23.704ZM13.1129 22.6709L13.5638 22.0511C13.6765 21.9196 13.7141 21.7506 13.6953 21.5815C13.6577 21.4125 13.5262 21.2434 13.3008 21.0556C13.0565 20.8866 12.8499 20.8114 12.6808 20.8302C12.5117 20.8678 12.3615 20.9429 12.2675 21.0744L11.7979 21.6942L13.1129 22.6709ZM11.347 18.1443L11.8354 17.5056L15.6679 20.3982L15.1794 21.018L11.347 18.1443ZM16.6447 18.8956L16.9641 19.1773L16.4381 19.7784L12.8687 16.5665L13.3947 15.9842L15.4048 17.7686C15.4236 17.8062 15.5927 17.9564 15.8745 18.2382C15.743 17.9752 15.6115 17.6747 15.4988 17.3366L14.7661 15.1578L14.4092 14.8573L14.954 14.2562L18.5046 17.4681L17.9786 18.0503L16.1375 16.3974C16.1187 16.3787 15.9121 16.1908 15.5364 15.8152C15.6679 16.0781 15.7994 16.3787 15.9121 16.7355L16.6447 18.8956ZM12.2299 15.3268L12.5681 14.9512C12.7935 15.0826 13.0378 15.0263 13.2444 14.7821C13.4511 14.5567 13.4886 14.3125 13.3383 14.0872L13.6765 13.7303C14.0147 14.1999 13.9959 14.6506 13.5826 15.1014C13.1881 15.5334 12.7372 15.6086 12.2299 15.3268ZM20.0263 14.3313L16.795 12.547L17.4338 12.0398L19.6694 13.3546L18.7676 10.9692L19.3124 10.5184L20.6463 14.1059C20.8153 14.5379 20.8905 14.8948 20.8529 15.1202C20.8341 15.3456 20.7026 15.571 20.4396 15.7588L20.1954 15.9654L19.7633 15.4395L20.0075 15.2329C20.0639 15.1953 20.1202 15.1202 20.1578 15.0263C20.2142 14.9324 20.1954 14.7633 20.0827 14.5004L20.0263 14.3313ZM19.7445 10.1803L20.3832 9.71074L21.5668 11.2885L22.694 10.4433L21.5104 8.86552L22.1304 8.37716L25.0235 12.2089L24.3847 12.6784L23.1073 10.988L21.9801 11.8332L23.2576 13.5425L22.6188 14.012L19.7445 10.1803ZM26.3385 10.9692L26.564 11.3261L25.8877 11.7393L23.3515 7.68219L24.0278 7.26897L25.4368 9.5417C25.4556 9.56048 25.5683 9.76709 25.7749 10.124C25.7186 9.82344 25.6622 9.50413 25.6622 9.14726L25.5495 6.85575L25.3053 6.46131L25.9816 6.04809L28.5178 10.1052L27.8414 10.5184L26.5264 8.41473C26.5264 8.39594 26.3761 8.15177 26.1131 7.70098C26.1695 7.98272 26.207 8.32081 26.2258 8.67769L26.3385 10.9692ZM27.2966 5.46582L28.5929 4.8272C28.9311 4.67694 29.1941 4.58302 29.3819 4.54545C29.5886 4.50789 29.7764 4.56424 29.9831 4.67694C30.1897 4.80842 30.3588 4.99624 30.4903 5.2592C30.7158 5.74756 30.6594 6.16078 30.3025 6.51766C30.9036 6.42374 31.3357 6.66792 31.6175 7.23141C31.7678 7.55071 31.8054 7.87002 31.7114 8.20812C31.6175 8.54621 31.2981 8.84673 30.7158 9.12848L29.4007 9.76709L27.2966 5.46582ZM28.8559 6.9121L29.3068 6.6867C29.6262 6.53644 29.814 6.36739 29.8516 6.21713C29.9079 6.04809 29.8704 5.86026 29.7952 5.69121C29.6825 5.46582 29.551 5.33434 29.3819 5.29677C29.2316 5.2592 29.025 5.31555 28.7808 5.42825L28.2547 5.67243L28.8559 6.9121ZM29.814 8.86552L30.3964 8.58377C30.9224 8.32081 31.0727 7.96394 30.8473 7.49437C30.7533 7.32532 30.6218 7.17506 30.434 7.09993C30.2461 7.00601 29.9831 7.04358 29.6449 7.21262L29.1377 7.4568L29.814 8.86552ZM31.3733 3.58753L33.9658 2.64839L34.1725 3.24944L32.3314 3.90684L32.8011 5.20286L34.2476 4.67694L34.473 5.27799L33.0265 5.80391L33.5337 7.21262L35.4124 6.53644L35.619 7.13749L33.0077 8.09542L31.3733 3.58753ZM34.7548 2.38542L35.882 2.02855C36.2577 1.91585 36.5583 1.8595 36.8026 1.8595C37.0468 1.8595 37.291 1.95342 37.5164 2.14125C37.7419 2.32908 37.911 2.59204 38.0049 2.91135C38.0988 3.21187 38.1176 3.49361 38.0612 3.75657C37.9861 4.01953 37.8734 4.22615 37.6855 4.37641C37.5164 4.54545 37.1971 4.69572 36.765 4.8272L36.3705 4.9399L36.9153 6.72427L36.1638 6.96845L34.7548 2.38542ZM35.6942 2.7423L36.1826 4.33884L36.5583 4.22615C36.8965 4.11345 37.1031 3.98197 37.1971 3.81292C37.291 3.66266 37.291 3.43727 37.1971 3.15552C37.1407 2.93013 37.0468 2.77987 36.9153 2.66717C36.8026 2.57325 36.6711 2.5169 36.5583 2.5169C36.4644 2.5169 36.2953 2.55447 36.0699 2.6296L35.6942 2.7423ZM41.687 3.92562L42.4197 3.86927C42.4948 4.9399 42.1003 5.57851 41.2174 5.74756C40.6538 5.87904 40.1841 5.74756 39.8084 5.3719C39.4327 4.99624 39.1696 4.43276 39.0194 3.70023C38.8503 2.91135 38.8691 2.27273 39.0757 1.80316C39.2824 1.3148 39.6581 1.01428 40.2217 0.882795C41.0671 0.713749 41.687 1.12697 42.0627 2.16003L41.3676 2.42299C41.1422 1.72802 40.8041 1.44628 40.3532 1.5402C39.752 1.65289 39.5829 2.34786 39.846 3.56875C40.0902 4.7145 40.5223 5.24042 41.1234 5.10894C41.3489 5.05259 41.5179 4.9399 41.5931 4.73328C41.6682 4.52667 41.7058 4.26371 41.687 3.92562ZM44.1856 4.75207L44.2232 5.16529L43.4342 5.2592L42.9457 0.488355L43.716 0.413223L43.9977 3.08039C44.0165 3.11796 44.0165 3.32457 44.0541 3.73779C44.1105 3.45605 44.2232 3.15552 44.3735 2.81743L45.2752 0.713749L45.2376 0.244177L46.0267 0.169046L46.5151 4.92111L45.7261 5.01503L45.4819 2.53569C45.4631 2.5169 45.4443 2.23516 45.4067 1.70924C45.3316 1.99098 45.2376 2.31029 45.0874 2.64839L44.1856 4.75207ZM46.6842 0.169046L49.5961 0L49.6337 0.676183L48.5628 0.732532L48.7695 4.84598L47.9805 4.88355L47.7738 0.770098L46.703 0.826446L46.6842 0.169046ZM50.3288 0.0187829L53.0716 0.0563486L53.0528 0.694966L51.099 0.657401L51.0802 2.02855L52.6019 2.06612V2.70473L51.0614 2.66717L51.0426 4.1698L53.0152 4.20736V4.84598L50.2348 4.80842L50.3288 0.0187829ZM53.5976 0.0939144L56.5095 0.450789L56.4156 1.12697L55.3635 0.995492L54.8563 5.09016L54.0673 4.97746L54.5745 0.901578L53.5224 0.770098L53.5976 0.0939144ZM58.7075 0.732532L59.8535 0.995492L60.0038 4.58302L61.7509 1.4275L62.8405 1.69046L61.7697 6.34861L61.037 6.17956L61.9575 2.1976L59.9286 5.93539L59.365 5.80391L59.1959 1.55898L58.2754 5.54095L57.6367 5.40947L58.7075 0.732532ZM66.5414 5.33434C66.2972 6.10443 65.959 6.64914 65.5645 6.96845C65.1512 7.26897 64.6816 7.3441 64.1555 7.15627C63.6107 6.98723 63.2726 6.66792 63.1223 6.16078C62.972 5.67243 63.0096 5.05259 63.2726 4.26371C63.5168 3.49361 63.855 2.94891 64.2683 2.64839C64.6816 2.32908 65.1512 2.27273 65.6772 2.44177C66.2033 2.61082 66.5414 2.93013 66.7105 3.41848C66.8608 3.90684 66.8044 4.54545 66.5414 5.33434ZM65.7524 5.07138C65.9403 4.52667 66.0154 4.07588 65.9778 3.73779C65.959 3.38092 65.79 3.15552 65.4706 3.06161C65.17 2.94891 64.8882 3.04283 64.6628 3.30579C64.4373 3.56875 64.2307 3.98197 64.0616 4.52667C63.8925 5.05259 63.8174 5.50338 63.8362 5.84147C63.855 6.19835 64.024 6.44253 64.3434 6.53644C64.6628 6.64914 64.9258 6.55522 65.1512 6.29226C65.3767 6.0293 65.5833 5.61608 65.7524 5.07138ZM68.4764 3.54996L69.566 4.03832C69.923 4.18858 70.186 4.35763 70.3738 4.50789C70.5617 4.67694 70.6744 4.90233 70.7308 5.18407C70.7684 5.4846 70.7308 5.78512 70.5805 6.08565C70.449 6.38618 70.2799 6.59279 70.0733 6.76183C69.8666 6.9121 69.6412 6.98723 69.397 6.98723C69.1527 6.98723 68.8146 6.89331 68.4013 6.70549L68.0256 6.53644L67.2553 8.26446L66.5414 7.92637L68.4764 3.54996ZM68.9649 4.43276L68.2886 5.97295L68.6455 6.12322C68.9649 6.27348 69.2091 6.31105 69.3782 6.23591C69.566 6.17956 69.7163 6.01052 69.829 5.74756C69.923 5.54095 69.9418 5.35312 69.923 5.20286C69.9042 5.03381 69.8478 4.92111 69.7539 4.84598C69.6787 4.77085 69.5285 4.69572 69.3218 4.6018L68.9649 4.43276ZM72.7597 9.14726L73.3421 9.59805C72.6846 10.4433 71.9519 10.6499 71.1817 10.1991C70.6744 9.91736 70.4114 9.50413 70.3926 8.97821C70.3738 8.43351 70.5429 7.85124 70.9187 7.19384C71.3132 6.49887 71.764 6.04809 72.2337 5.82269C72.7222 5.5973 73.1918 5.63486 73.699 5.9166C74.4505 6.34861 74.6384 7.08114 74.2251 8.1142L73.53 7.83246C73.8118 7.15627 73.7742 6.70549 73.3609 6.48009C72.8349 6.17956 72.2525 6.57401 71.6325 7.66341C71.0314 8.67769 71.0126 9.33509 71.5386 9.6544C71.7453 9.76709 71.9519 9.78588 72.1586 9.69196C72.3464 9.59805 72.5531 9.41022 72.7597 9.14726ZM75.8031 7.15627L76.4794 7.58828L75.2583 9.52292L77.7005 8.3396L78.4144 8.79038L76.4419 9.63561L76.0473 12.9602L75.3335 12.5094L75.6716 9.93614L74.7699 10.3118L73.9433 11.6454L73.267 11.2322L75.8031 7.15627ZM80.3306 13.3358C79.8234 13.9932 79.3162 14.3877 78.8277 14.5379C78.3393 14.6882 77.8884 14.5943 77.4375 14.2374C77.0054 13.8993 76.7988 13.4673 76.8176 12.9602C76.8364 12.453 77.0994 11.8708 77.6066 11.2134C78.1138 10.5748 78.6023 10.1803 79.0907 10.0301C79.5792 9.87979 80.0488 9.97371 80.4997 10.3306C80.9318 10.6687 81.1385 11.1007 81.1197 11.6078C81.1009 12.115 80.8191 12.6972 80.3306 13.3358ZM79.6731 12.8287C80.0113 12.3779 80.2367 11.9835 80.3306 11.6454C80.4246 11.3073 80.3494 11.0443 80.0864 10.8377C79.8234 10.6311 79.5416 10.6123 79.241 10.8002C78.9404 10.9692 78.6211 11.2885 78.2641 11.7393C77.926 12.1713 77.7005 12.5657 77.5878 12.9038C77.4939 13.2419 77.569 13.5237 77.8508 13.7303C78.0951 13.9181 78.3769 13.9369 78.6774 13.7678C78.978 13.5988 79.3162 13.2795 79.6731 12.8287ZM79.4477 15.6837L82.7165 12.1713L84.4261 13.7678L83.9564 14.2562L82.848 13.2044L80.0301 16.2284L79.4477 15.6837ZM85.4593 18.2757C84.8769 18.8392 84.3321 19.1585 83.8249 19.2337C83.3177 19.3276 82.8668 19.1585 82.4911 18.7641C82.0966 18.3509 81.9463 17.9001 82.0402 17.3929C82.1341 16.9046 82.4723 16.3599 83.0735 15.7964C83.6558 15.2141 84.2006 14.8948 84.7079 14.8197C85.2151 14.7446 85.666 14.8948 86.0605 15.308C86.4362 15.7025 86.5865 16.1533 86.4926 16.6604C86.3987 17.1675 86.0605 17.6935 85.4593 18.2757ZM84.8957 17.6747C85.2903 17.2802 85.572 16.9046 85.7223 16.5853C85.8538 16.266 85.8163 15.9842 85.5908 15.7588C85.3654 15.5147 85.0836 15.4583 84.7454 15.5898C84.4261 15.7213 84.0503 15.9842 83.6558 16.3787C83.2425 16.7731 82.9795 17.13 82.8292 17.4493C82.6789 17.7686 82.7165 18.0691 82.9607 18.3133C83.1862 18.5387 83.4492 18.595 83.7686 18.4636C84.1067 18.3321 84.4636 18.0691 84.8957 17.6747ZM85.9853 21.9572L85.6472 22.2014L85.1775 21.5627L89.0663 18.7453L89.5172 19.3839L87.338 20.9617C87.3192 20.9805 87.1313 21.1119 86.7932 21.3373C87.075 21.2622 87.3943 21.1871 87.7513 21.1495L90.0432 20.8866L90.4189 20.6048L90.8698 21.2434L86.9998 24.0609L86.5302 23.4222L88.5403 21.976C88.5591 21.9572 88.7845 21.8069 89.2354 21.5064C88.9536 21.5815 88.6342 21.6379 88.2585 21.6942L85.9853 21.9572ZM92.3539 23.4974L92.9739 24.5304C93.1618 24.8497 93.2933 25.1315 93.3496 25.3757C93.406 25.6011 93.3684 25.864 93.2557 26.127C93.1242 26.3899 92.9175 26.6153 92.6169 26.7844C92.3539 26.9534 92.0721 27.0286 91.8279 27.0286C91.5649 27.0473 91.3207 26.9722 91.1328 26.8407C90.9262 26.6905 90.7007 26.4275 90.4753 26.0331L90.2499 25.695L88.653 26.6529L88.2397 25.9767L92.3539 23.4974ZM92.2412 24.4929L90.7947 25.3569L91.0013 25.695C91.1892 25.9955 91.3583 26.1833 91.5461 26.2209C91.734 26.2772 91.9406 26.2209 92.2036 26.0706C92.3915 25.9579 92.523 25.8265 92.5982 25.6762C92.6545 25.5259 92.6921 25.3944 92.6545 25.3005C92.6357 25.1878 92.5606 25.0376 92.4291 24.831L92.2412 24.4929ZM94.4204 27.0661L95.5664 29.5455L95.0028 29.8272L94.1762 28.0428L92.9363 28.6251L93.5751 30.015L92.9927 30.278L92.3539 28.9068L91.0013 29.5267L91.8279 31.3298L91.2455 31.6116L90.062 29.0947L94.4204 27.0661ZM92.2788 33.9594L94.1386 33.2081C93.7629 33.0954 93.5187 32.8512 93.3684 32.5132C93.2745 32.2878 93.2557 32.0624 93.2933 31.8558C93.3308 31.6491 93.4436 31.4613 93.5938 31.2923C93.7629 31.142 94.0259 30.9917 94.3829 30.8415L95.9234 30.2216L96.2239 30.9542L94.6459 31.5928C94.3265 31.7055 94.1386 31.837 94.0635 31.9684C93.9696 32.0999 93.9696 32.2502 94.0259 32.4192C94.1386 32.6822 94.3829 32.87 94.721 32.9827L96.7124 32.1751L97.013 32.9076L92.5794 34.692L92.2788 33.9594ZM97.4638 34.26L97.6893 35.0301L95.7731 35.5748L96.1676 36.9271L98.065 36.3824L98.2904 37.1525L93.6878 38.4673L93.4623 37.6972L95.51 37.115L95.1155 35.7626L93.0678 36.3449L92.8612 35.5935L97.4638 34.26ZM96.9566 42.1675C96.1488 42.3366 95.51 42.299 95.0404 42.0924C94.5707 41.8858 94.2889 41.5101 94.1762 40.9654C94.0823 40.4207 94.195 39.9512 94.5519 39.5755C94.9089 39.2186 95.4913 38.9557 96.2991 38.7866C97.0881 38.6364 97.7268 38.6552 98.1965 38.8805C98.6662 39.0872 98.948 39.4628 99.0607 40.0075C99.1734 40.5522 99.0419 41.0218 98.685 41.3787C98.328 41.7543 97.7644 42.0173 96.9566 42.1675ZM96.7875 41.3599C97.3511 41.2472 97.7832 41.0969 98.065 40.9091C98.3656 40.7213 98.4783 40.4583 98.4219 40.139C98.3656 39.8009 98.1589 39.6131 97.802 39.5379C97.4638 39.4816 97.013 39.5004 96.4494 39.6131C95.9046 39.707 95.4725 39.8573 95.1719 40.0451C94.8713 40.2517 94.7586 40.4959 94.8337 40.834C94.8901 41.1533 95.0967 41.3411 95.4349 41.4162C95.7731 41.4914 96.2239 41.4726 96.7875 41.3599ZM94.721 43.426L99.474 42.7686L99.7934 45.0601L99.1358 45.154L98.9104 43.6514L94.8337 44.2149L94.721 43.426ZM97.5578 49.305C96.7312 49.3238 96.1112 49.2111 95.6791 48.9294C95.247 48.6476 95.0216 48.2344 95.0028 47.6709C94.984 47.1074 95.1907 46.6754 95.5852 46.3749C95.9985 46.0556 96.6184 45.8866 97.4263 45.849C98.2529 45.8302 98.8728 45.9617 99.3049 46.2434C99.737 46.5064 99.9624 46.9384 99.9812 47.5019C100 48.0466 99.7934 48.4786 99.3988 48.7979C98.9855 49.0984 98.3656 49.2675 97.5578 49.305ZM97.5202 48.4598C98.1026 48.441 98.5347 48.3659 98.854 48.2156C99.1922 48.0842 99.3425 47.84 99.3237 47.5207C99.3237 47.1826 99.1358 46.9572 98.8165 46.8445C98.4783 46.713 98.0274 46.6754 97.4638 46.6942C96.9002 46.713 96.4682 46.7881 96.13 46.9196C95.8106 47.0699 95.6603 47.3141 95.6603 47.6521C95.6791 47.9715 95.8482 48.1968 96.1676 48.3095C96.4869 48.441 96.9566 48.4974 97.5202 48.4598ZM95.51 53.0616C95.6228 52.5169 95.8482 52.1225 96.2239 51.8783C96.5997 51.6341 97.0317 51.5402 97.5578 51.5778C98.1401 51.6153 98.591 51.7844 98.9104 52.1225C99.2298 52.4418 99.3988 52.8362 99.4176 53.3434L100 53.3809L99.9624 54.0571L99.3613 54.0008C99.2673 54.5267 99.0419 54.9211 98.6662 55.1841C98.3092 55.4283 97.8584 55.541 97.3135 55.5034C96.1676 55.4283 95.5664 54.8272 95.4725 53.7378L94.8713 53.7002L94.9277 53.024L95.51 53.0616ZM98.8352 53.3058C98.7413 52.7235 98.2904 52.4042 97.5014 52.3479C96.75 52.2915 96.2803 52.5545 96.0924 53.118L98.8352 53.3058ZM96.0361 53.7754C96.1488 54.3576 96.5809 54.6769 97.3887 54.7333C98.1401 54.7896 98.6098 54.5267 98.7789 53.9632L96.0361 53.7754ZM94.815 56.2359L94.9465 55.5222L99.4364 57.6259L99.2673 58.5838L94.3265 58.9782L94.4768 58.1518L98.5722 57.9076L94.815 56.2359ZM95.7731 63.1105C94.984 62.9038 94.4204 62.6033 94.0823 62.2089C93.7629 61.8144 93.669 61.3449 93.8193 60.8189C93.9508 60.2742 94.2701 59.9174 94.7586 59.7295C95.2283 59.5605 95.867 59.5793 96.656 59.7859C97.4451 59.9925 98.0086 60.293 98.3468 60.6875C98.6662 61.0819 98.7601 61.5515 98.6098 62.0962C98.4783 62.6221 98.1589 62.979 97.6705 63.1668C97.2008 63.3358 96.5621 63.3171 95.7731 63.1105ZM95.9797 62.3028C96.5433 62.4531 96.9942 62.5094 97.3323 62.4531C97.6893 62.4155 97.8959 62.2464 97.9899 61.9271C98.065 61.6078 97.9711 61.3261 97.6893 61.1195C97.4075 60.9129 96.9942 60.725 96.4494 60.5935C95.9046 60.4433 95.4725 60.3869 95.1155 60.4245C94.7586 60.4621 94.5332 60.6499 94.4392 60.988C94.3641 61.2885 94.458 61.5515 94.7398 61.7581C95.0028 61.9835 95.4349 62.1525 95.9797 62.3028ZM97.9523 64.275L97.0505 67.0549L96.4118 66.8482L96.7312 65.834L92.8236 64.5567L93.0678 63.8054L96.9754 65.0639L97.3135 64.0684L97.9523 64.275ZM96.4494 68.5387L96.0736 69.3464L91.1892 68.5763L91.5085 67.825L92.7297 68.0503L93.2933 66.7731L92.3164 66.003L92.6357 65.3081L96.4494 68.5387ZM93.3684 68.163L95.5852 68.5575L93.8005 67.1675L93.3684 68.163Z" fill="#274795"/>
<path fill-rule="evenodd" clip-rule="evenodd" d="M7.66519 69.6655L8.41665 71.1118L9.99471 71.3748L8.86752 72.5205L9.11175 74.1171L7.66519 73.4033L6.21864 74.1171L6.46286 72.5205L5.31689 71.3748L6.91374 71.1118L7.66519 69.6655Z" fill="#5FC6F1"/>
<path fill-rule="evenodd" clip-rule="evenodd" d="M92.4294 69.4592L93.1808 70.9054L94.7589 71.1684L93.6317 72.3142L93.8759 73.9107L92.4294 73.197L90.9828 73.9107L91.227 72.3142L90.0811 71.1684L91.6779 70.9054L92.4294 69.4592Z" fill="#5FC6F1"/>
</svg>
